<svg xmlns="http://www.w3.org/2000/svg" viewBox="0 0 855.37 695.83"><defs><style>.cls-1{fill:#7073c9;}</style></defs><g id="Layer_2" data-name="Layer 2"><g id="Layer_1-2" data-name="Layer 1"><path class="cls-1" d="M232.56,316.33c4.89-4,9.68-8.16,14.7-12,2.22-1.69,4.91-2.78,7.42-4.09,3.4-1.79,1.19-3.72,0-6-1.09,1.17-2,2.27-3,3.22a16,16,0,0,1-8.3,4.42c-.94.16-1.59,1.95-2.18,2.73l-8.59.73-.49-1.19c5.53-2.41,9.82-7.11,15.88-7.66,3.85-7.63,9.8-11.76,18.4-12.33l-.56-1.33a39.39,39.39,0,0,0-5.11.29c-8.11,1.46-14.9,5.57-21.16,10.73-2.25,1.86-4.74,3.43-6.94,5.34a37.33,37.33,0,0,0-6.18,6.26,26.94,26.94,0,0,1-11.93,9.21,16.73,16.73,0,0,0-3.12,2.32c-4.88,0-9.79-.32-14.63.1s-9.29-1.23-14.17-.3c-4.7.9-9.71.2-14.59.21-3.06,0-6.12,0-9.19,0-4.4,0-4.62-.22-4.62-4.6q0-33,0-66v-5.83h-.68v71.66c0,4.64-.15,4.79-4.79,4.79h-68c-4-1.86-8.11-3.44-11.9-5.64a107.59,107.59,0,0,1-28.45-24,54.28,54.28,0,0,0-7-6.46c-6.26-5.24-5.12-14.6,2.19-18.62,1.79-1,3.16-2.71,4.81-4,3.21-2.49,6.53-4.84,9.71-7.36,8.11-6.42,16.16-12.92,24.26-19.34A35,35,0,0,1,78,229.26c4.83-3,9.74-5.82,14.48-8.93a37.86,37.86,0,0,0,5.19-4.64c5.75-5.58,13.28-7.83,20.24-11.24,5.53-2.72,11.36-3,17-4.21,3.89-.85,8.08-.24,12.12-.52,3.58-.25,7.13-1,10.71-1.21,3.12-.21,6.38.51,9.37-.15a28.2,28.2,0,0,1,13.73.22c2.27.62,4.17,2.49,6.4,3.43,8,3.37,15.87,7.11,24.11,9.74,9.25,2.94,18.72,6.28,28.67,2.77a8.47,8.47,0,0,0,3.9-2.45c3-4,7.31-4.8,11.7-5.32,3.23-.39,4.59,2,5.27,4.73a6.29,6.29,0,0,1-.1,3.36,131,131,0,0,1-5,13.76c-2.29,4.93-5.16,9.57-4.58,15.35,0,.55-1.14,1.13-1.57,1.82-.92,1.46-1.72,3-2.58,4.52a16,16,0,0,0,3.73,1.76c5.77,1.09,11.57,2,17.36,2.95,3.79.64,4.16,3.88,5.25,6.27H249.08l-.3.55c2.37.64,4.72,1.68,7.12,1.82,5.16.3,10.35.05,15.53.2a16.37,16.37,0,0,1,4,1.14c-.48,1.3-.67,2.85-1.51,3.86-2,2.42-4.43,4.52-6.49,6.91a4.23,4.23,0,0,0-1,3.14c.14.61,1.81,1.27,2.76,1.23,2.31-.11,3.63.87,5.08,2.63a8.83,8.83,0,0,0,5,2.82,37,37,0,0,0,8.48,0c2.3-.17,5-.4,2.48-4.63l7.55,2.48,8.93-2.86-.07-.92H284.41l-.19.63,4.38,2-.34,1.2-11.53-1.55,3.34-1.64c-.35-.27-.58-.59-.85-.63a39.09,39.09,0,0,1-5.34-.85c-2.64-.84-3-2.48-1.35-4.66a17.89,17.89,0,0,1,1.4-1.49c5.12-5.26,5.3-6.81,1.87-13.32a42.44,42.44,0,0,1-1.88-5.23h9.67l.05-1.36c-3.15-.35-6.29-.93-9.44-1-2.56,0-4.17-.79-5.35-3.15a4.54,4.54,0,0,0-3.2-1.88c-2.79-.33-5.63-.19-8.45-.31a9.3,9.3,0,0,1-2-.54l-.06-1a12.33,12.33,0,0,1,3.13-.69c12.21.71,24.46,1,36.49,3.68a127.6,127.6,0,0,0,17.07,2.3,151.23,151.23,0,0,0-37-7.32l-.1-1.18a17.74,17.74,0,0,1,4.3-.49c7.76,1,15.49,2.21,23.25,3.17,1.26.15,2.62-.59,3.94-.92.23-.55.81-1.34.63-1.62-1-1.43-5.76-2-7.25-1.13l5.72,2.7-7-1.35c-.22,0-.57-.05-.64-.18-3.43-6.86-10.23-4.27-15.5-5-7.46-1.09-15.13-.71-22.72-1a6.6,6.6,0,0,1-3.7-1.11c17.23-1.18,34.21.92,51.13,4l.22-1.14-8.19-2-.07-.54a10.4,10.4,0,0,1,2.22-.11c1.45.23,2.91,1,4.3.89,11.07-1.06,20.86,3.71,30.52,7.61,10.07,4.06,19.4,10,28.9,15.4,1.94,1.11,3.14,3.5,4.77,5.22s.59,3.51-.6,4.7c-.57.56-2.25.1-3.4,0-.65-.08-1.27-.71-1.87-.67-4.46.32-8.9.76-13.36,1.13-6.3.51-12.61,1-18.93,1.46-2.48.16-5,0-7.47.14a6.18,6.18,0,0,0-3.7,1.46,4.76,4.76,0,0,0,1.43.42c6.43-.15,12.87-.39,19.31-.46,1.2,0,2.89.26,3.49,1.06a4.06,4.06,0,0,1,.32,3.75c-.46.71-2.36.56-3.63.65a16.41,16.41,0,0,1-2.51-.19l-.21.84,4.82,1.54-.31.67c1,.6,2,1.22,3,1.79a13.5,13.5,0,0,1,3.45,2.43L359.1,287c-1.17.22-2.34.41-3.5.67-1,.23-1.93.54-2.9.82.74.7,1.37,1.82,2.22,2,3.85.93,7.75,1.64,11.65,2.27.46.07,1.08-.87,1.62-1.34-.52-.48-1-1.23-1.57-1.38a45.29,45.29,0,0,0-4.67-.69l.05-.77,1.86-.37,9.81,1.66-2.5,2.63c2.3,3.57,7.45,4.26,9.24,2.06a89.87,89.87,0,0,0,9,4,31.31,31.31,0,0,1,16.42,12.25c.92,1.33-.17,4.05-.34,6.12H393.42q-78.27,0-156.54,0A29.19,29.19,0,0,1,232.56,316.33Zm102.26-32.8c-3-.87-5.92-2.1-9-2.52a66.33,66.33,0,0,0-12.51-.6c-3.27.18-6.49,1.31-9.72,2a3.88,3.88,0,0,0-1.05.61,3.62,3.62,0,0,0,2.79.81c2.65-.39,5.3-1.4,7.92-1.29,5.56.23,11.1,1,16.66,1.58l11.21,1.28-.06.69-6.29.7c1.52,3,3.8,3.09,5.92,2.79,1.36-.2,2.59-1.3,3.88-2-1-1.21-1.84-3.05-3.13-3.48C339.42,283.45,337.05,283.69,334.82,283.53Zm-46.75-6.74c-1-1.59-2.14-2.55-2.15-3.52,0-3.13,5.65-8.69,9-8.7q23.28-.07,46.55.16a13.78,13.78,0,0,1,4.79,1.48c1.64.68,5.71-.61,6.94-2.52a11,11,0,0,0-2-.46c-6.31-.32-12.62-.66-18.93-.87q-10.71-.36-21.41-.49c-2.48,0-5,.3-7.44.45-4.82.3-9.65.54-14.47,1a2.87,2.87,0,0,0-1.86,1.58c-1.46,3.49-2.76,7.06-4.07,10.44l-3.71.45.1,1Zm-28.54,12.38c-.4,2.5-1,4.2-.8,5.81.11.91,1.65,2.5,2.23,2.37,3.37-.76,6.66-1.92,10-3,1.07-.34,2.12-1.2,3.14-1.14a24,24,0,0,0,14.39-3.62,4.33,4.33,0,0,1,1.93-.51c4.85-.37,9.71-.71,14.57-1.05,1-.07,2-.13,3-.11,4.1.1,8.2.29,12.29.28.69,0,1.37-.78,2.06-1.2l-.15-.87a13,13,0,0,0-2.72-.49c-3.93.12-7.86.23-11.77.58-7.73.69-15.46,1.38-23.15,2.36a74.92,74.92,0,0,0-12.93,2.74c-1.91.61-4.37-.37-5.94,2.34-1,1.76-3.29.69-4.42-1.1A37.07,37.07,0,0,1,259.53,289.17ZM75.82,310.67c-1.5-2.64-2.42-4.82-3.83-6.61-4.14-5.24-3.15-10.83-.61-16a129.23,129.23,0,0,1,10.14-16.74c6.09-8.67,13.3-16.15,23.63-20,3.58-1.33,6.9-3.41,11.15-5.57-1.53-.54-1.92-.83-2.12-.74-6.94,3.23-14.4,5.72-20.62,10-5.25,3.63-9.37,9.1-13.43,14.2-4.86,6.12-9.4,12.65-10.92,20.52A38.58,38.58,0,0,0,68.79,302c.33,2.51,2.34,4.87,3.87,7.1C73.22,309.87,74.61,310.09,75.82,310.67ZM172,241.22l-.4,1.17c1.34.54,2.65,1.14,4,1.59,1,.31,2.15.14,2.91.66,3.08,2.16,6.48,2.42,10.06,2.24,1.45-.07,3.25-.3,4.31.41,4.77,3.16,10.35,3.7,15.58,5.34,8.43,2.63,16.85,5.28,25.3,7.84.55.16,1.31-.35,2-.55a7.11,7.11,0,0,0-1.05-1.83c-.35-.33-1.08-.22-1.62-.37Q220,254.18,207,250.6c-.53-.15-1-.55-1.51-.75-3.9-1.41-7.74-3-11.71-4.14-4.54-1.29-9.19-2.21-13.81-3.18C177.34,242,174.67,241.65,172,241.22Zm-28.66-1L143,238.6c-8.12,2.26-16.77,2-24.52,6C126.76,243,135.46,243.6,143.36,240.26Zm128.16,6.41-.16,1.31,28.49,3.46.15-1.24C290.6,248.27,281.15,246.75,271.52,246.67Zm28.83,27.42,17.57-2.18c-1.27-.76-1.64-1.17-2-1.14-5.39.53-10.78,1-16.13,1.8-.94.14-1.65,1.82-2.47,2.8l3.35,1.82.5-.69ZM144.16,225.25c2.4-9.23,1.61-18.73-1.26-22C143.33,210.81,143.75,218,144.16,225.25Zm163.1,33.34,0,1c.28.17.55.49.83.5q6.57.19,13.14.31a6.27,6.27,0,0,0,2.65-.3c.54-.25.79-1.13,1.16-1.72a6.29,6.29,0,0,0-1.9-.58c-2.09,0-4.17.2-6.26.32Zm-154.53-37.7c2.63-11.7,2.54-16.75,0-19.06Zm156,23.92-.17.83,8.31,3c-.48-4.42-2.85-5.69-6.33-6.53l.94,2.56Zm-169.4-27.07.93-.08c1.82-4.92-.55-9.48-1.12-14.2l-1.33.12Zm8.54-1.42c2.67-5.17,2.77-11.71,0-14.36ZM129,203.66c1.55,4.85,2.85,9,4.16,13.05.62-1.94,1.16-4.2.49-6C132.75,208.42,130.91,206.51,129,203.66Zm109.27,57c2.48.73,4.86,1.45,7.28,2.05.07,0,.85-1.44.63-1.86C245.06,258.74,240.25,258.6,238.23,260.63Zm-71.1-19.15c-2.08-2.85-5.19-2.43-8.4-3C160.47,243.42,164.34,240.73,167.13,241.48Zm157.14,45c3.25,2.74,5.59,2.65,7.89-.35Zm-221.81,18.3-.64,1.48,7.52,3.13.61-1.43ZM303.74,250.8l-.31,1.2,9.51,2.56.29-1.14Z"/><path class="cls-1" d="M404.91,318.45c-3,4-6.28,7.57-10.93,9.92a157.36,157.36,0,0,0-13.62,8.32c-2.08,1.33-1.72,3.15-.65,5.06a13.07,13.07,0,0,1,1.51,4.5c-3.45-1.89-6.21-4.87-11.5-3.49l3.74,2a44.5,44.5,0,0,1,4.77,2.57c4.18,2.93,4.36,6,.1,9-5.18,3.63-10.95,6.43-16,10.2-6.71,5-14.5,7.82-21.78,11.67a33.49,33.49,0,0,1-3.6,1.39l-1.38-2.8c-4.69,4.42-8.88,5.27-11.6,2.22-1.63,3.45-4.54,3.59-7.74,3.13-2.51-.36-3.31-2.2-2.08-3.82,1.35-1.78,3.6-3.77,5.62-4,3.49-.35,7.1.77,10.68,1,1.76.1,3.57-.48,5.63-.79-.51-1.68-.82-2.7-1.26-4.12l7.61-1.44c-2.84-.89-5-1.39-7-2.23-2.43-1-5.29-1.76-7-3.55-4-4.16-9.28-4.1-14.11-5.06-2.67-.52-4.38,2.41-4.78,5.22a66.76,66.76,0,0,0-.81,8.09c0,1.1.45,2.77,1.24,3.22,2.66,1.49,2.42,3.64,2.26,6.11-1.19,18.54-2.12,37.11-3.48,55.65-1.41,19.21-3.2,38.39-4.83,57.58-.24,2.82-.65,5.63-.74,8.46-.1,3.35-.33,6.46-4.5,7.23-.31.05-.82.27-.85.47-.62,4.43-5.39,7.94-2.91,12.87l3.42.44c-.44,1.16-.88,2.32-1.46,3.83-.06-.22-.07.11.07.19,4.66,2.51,4.7,6.47,4,11.08-.52,3.54,0,7.23-.07,10.85,0,3.13,1.29,4.9,4.59,4.94.63,0,1.26.32,2.37,1.48-1.35.82-2.65,2.2-4.08,2.35a94.06,94.06,0,0,1-12.22.41c-3.43-.1-2.38-3-2.46-4.93-.1-2.15,1.36-2.27,3-2,1.51.25,3,.44,4.53.65l.26-1.15-10-2.41c.19-1.93,1-4.1.46-5.87-1.28-4.16.29-7.94.63-11.9.41-4.72,0-9.51.42-14.24s1.23-9.41,2-14.1a9.35,9.35,0,0,1,1.4-2.66l-4.4-2.45,3.21-2.21c-.64-1.46-1.81-3.28.46-3.55.09-1.78.16-3.28.27-5.69-1-1-3.23-2.92.35-4.81l-2.08-4,3.55-2.19-3.38-2.57,2.1-1.33c-1.13-2.15-1.09-4.4,1.45-6.05-1.65-3.73,2.82-7.6-.25-11.32-.16-.2,0-.64,0-1.29l2.3.61c-.45-1.65-3.39-3.35.2-4.52-3.28-2.9-2.93-9.08.52-10.72-.71-1.82-1.42-3.65-2.2-5.68l1.76-1c-.53-2.15-1-4-1.43-5.89-.11-.43-.35-1-.18-1.31,4.66-8.95,2.58-18.66,3.11-28.05.4-6.82.42-13.66.62-20.5V364.72l-1.08,0c.18,3.61.37,7.22.55,10.82-.47,4.95-1,9.9-1.39,14.86-.6,8.48-1,17-1.55,25.46,0,.22,0,.46-.05.68-.37,1.89,0,4.77-3,4.26-2.73-.46-1.47-2.88-1-4.47,1.26-4,.73-7.83-.39-11.75-.29-1,.52-2.31,1-4.1-1.05-3.13-2.78-7,.28-10.31a14.85,14.85,0,0,1-1.86-2.59,22.26,22.26,0,0,1-.93-3.64c-2.59,2.88-2.13,10-.35,11.67a52,52,0,0,0-.82,6.22c0,5,.14,9.92.3,14.88.09,3-1.32,4.1-4.19,3.65-1.76-.27-3.54-.49-6-.83,7.68-1.38,7.91-1.37,8.08-8.95.13-5.53-.35-11.09-.72-16.63-.16-2.57-1.1-3.79-4.22-2.74a19.68,19.68,0,0,1-8.33.75c-7.55-.9-14.34.19-20.44,5.2-2.18,1.8-5.23,2.6-7.94,3.69q-15.4,6.18-30.85,12.24a11.18,11.18,0,0,1-2.95.57c-3.26.35-6.6.29-9.76,1s-4.13-.59-4.33-3.32c-.26-3.62-.48-7.24-.81-10.85a35.63,35.63,0,0,0-.82-5c-1.45-6.11-2.35-6.6-8.73-4.77a55.64,55.64,0,0,0,0,6.95c.9,7,.07,14.14,2.31,21.18,1.48,4.69.77,10.1.85,15.19a2.74,2.74,0,0,1-1.68,2,47.32,47.32,0,0,1-7.8.33c-2.92-.11-3-2.85-3.16-4.66-.84-11.18-1.39-22.39-2.07-33.59-.3-5-.69-10-1.09-15.69-2.11,2.55-.66,8.05-5.8,6.08-.72-.27-.36-3.35-.55-5.74A6.25,6.25,0,0,1,164,382a30.72,30.72,0,0,1-3.56-4c1.21-1,2.29-2.77,3.63-3,5.5-1,11.15-1.09,16.6-2.23s10.22,1.2,15.29,1.94c.86.13,1.54,1.5,2.3,2.3-.92.8-1.86,2.32-2.76,2.3-9.68-.2-19.36-.63-29-1a19.53,19.53,0,0,1-3.24-.7l-.44,1.05c2,.79,3.91,2.14,5.93,2.29,6.55.48,13.13.6,19.7.68,5.13.07,6.85,1.79,6.73,7a42.71,42.71,0,0,0,.34,5.41c.5,4.83,1,9.67,1.65,14.48a38.4,38.4,0,0,0,1.23,4.77l1.27-.22q0-6.53,0-13.05c0-.21-.3-.44-.25-.62,1.2-4.74-2.58-8.42-2.73-12.91-.07-2.07,0-3.53,2.06-4.81,2.27-1.38,4.24-3.38,2.39-6.61a42.16,42.16,0,0,1-2.12-5c-2.27,2.08-3.58,1.85-4.19-.93A50.36,50.36,0,0,1,193.41,359c0-3,2.41-3.57,5.16-3.69-.4,4-.78,7.82-1.15,11.6l1.05.55c.61-1,1.7-2,1.74-3.08a85.4,85.4,0,0,0-.69-15.35l-1.12,3c-.71-4.12-1.45-7.08-5.63-5.47-.09,0-.22-.05-.32-.09-1.77-.83-3.53-1.65-6.5-2.92a41.69,41.69,0,0,1,4.48-3.27c5.21-2.89,10.5-5.64,15.76-8.46,1.57-.84,2.4-.33,3.14,1.27,1.21,2.61,2.61,2.69,4.59.81,5.72-5.45,11.52-10.83,17.29-16.23q84.71,0,169.42,0A24.65,24.65,0,0,1,404.91,318.45ZM225,368.79c-1.66-.28-3.52-1.14-4.9-.64-.93.34-1.16,2.59-1.71,4,2.52-1,3.08-4.89,6.62-2.73,0,.94.26,2.13-.2,2.77-1.28,1.78-3.32,3.12-4.26,5-2,4-3.45,8.19-5,12.35a2.55,2.55,0,0,0,.53,1.89c2.29,3.41,1.52,6.52-.6,9.69-1.86,2.77-3.32,5.74-3.22,9.63,1.09-.39,2-.43,2.29-.86,7.08-9.21,14.09-18.46,21.23-27.85l1.78,1.26c.31-1.6.13-3.34.91-4.31,11.52-14.28,23-28.61,40.89-35.63l13.93.72,0-1.77H278.18c-3.69-.61-7.35-1.43-11.06-1.77-5.13-.47-10.77-2-15.32-.51-8.16,2.71-13.3,9.55-17.39,17.18-2.19,4.09-5.55,7.55-8.42,11.27C225.82,368.71,225.35,368.7,225,368.79Zm-14.68,35.37c.38-7.51-.82-15.25,4.77-21.71l-.81-.55-4,.62L210,382l6.46-4.7-.24-1c-2.75.52-6.81,3.45-5.7-3C206.48,377.83,206.3,399.1,210.35,404.16Zm-5.27-61.91h-1.46c-1.08,8.29-1.56,16.61.22,25,2.11-2.32,2.7-4.81.77-7.57,3.26-.06,2.29-1.71,1.51-3.27-1.85-3.77-3.54-4.66,1.35-8,.41-.27.48-1,1-2.29l-3.38,2.69Zm16.25,8.54c-.35,1.61-3.27,3-.91,5.87.36.43-.23,2.1-.84,2.81-1.73,2.06-3.77,3.85-5.54,5.88a20.63,20.63,0,0,0-2,3.64c1.2-.29,1.62-.27,1.8-.46,2.7-2.84,5.48-5.61,8-8.62a5.28,5.28,0,0,0,.85-3.64A37.2,37.2,0,0,0,221.33,350.79Zm12.28-8.25-.78-.9c-1,.82-2.23,1.46-2.87,2.49a40.69,40.69,0,0,0-2.65,5.62c-.49,1.14-.85,2.33-1.27,3.5l1.25.64A28.86,28.86,0,0,0,233.61,342.54Zm-19.39,6.65-1.34-.15a32.74,32.74,0,0,0-1.55,10.64l1.72.18Zm34.17-10.34v-1.72H238.22l-.05,1.21Zm49.28,5.27-.65,0v11.09l.65,0ZM181,384.12c-3.36,1-4,3.18-2,7.69C179.78,388.94,180.4,386.54,181,384.12Z"/><path class="cls-1" d="M297.32,52c.07.53.14,1.06.22,1.59l.71.23a13.84,13.84,0,0,0,1.42-3,60.43,60.43,0,0,1,11.92-24.59c.73-.94.4-2.71.14-4.28A67.07,67.07,0,0,1,339.92,3l.56.68-1.67,2.17c12.22-5.29,25-6.66,38-5.43,13.31,1.25,25,6.62,35.29,15.28l.72-1L398.15,3.18c22.31,3,48.64,39.51,42.33,57.74l-3.39.48-.24,1.28c5.76,2.14,12.17,2.08,18.08,3.68l.08,1a9.41,9.41,0,0,1-2.09,1.12c-10,2.53-20,5-30,7.5-9.11,2.32-18.23,4.59-27.26,7.16-6.2,1.77-12.19,4.26-18.4,6a158.94,158.94,0,0,1-16,3.28c-1.05.18-2.29-.77-3.36-1.61-1-.45-1.45,3.54-3.13-.8-.93,3.41-2.58,3.68-5.09,2.83a78,78,0,0,0-9.54-2.16,6.4,6.4,0,0,0-2.65,0c-3,.7-5.78,2.65-9.19.53-1.11-.69-3.35.63-5.09.74a35.47,35.47,0,0,1-4.82-.32l-.27-1-2.29,2.43,4,3.78-3.36-.43-1.67-.87a28.34,28.34,0,0,1-.37-3c-.08-3.46,2.48-5.19,5.84-4.53,2.39.47,4.93.2,7.41.21,4.43,0,8.87,0,13.3,0l.11-1.26c-2.7-.28-5.41-.47-8.09-.87-1.48-.22-4.13,1.54-3.93-2.3a15.39,15.39,0,0,1-2.59,1.55c-1.6.58-2.52.36-4.36-.87-4-2.68-3.69-6.43-4.77-10a3.1,3.1,0,0,0-1.73-1.39c-.78.64-1.93,1.59-1.86,2.33a16,16,0,0,0,1.52,4.47c.92,2.19,2.56,4.63.36,6.56-1.26,1.1-3.59,1-6.18,1.58l3.68,2.87c-.23.55-.57,1.4-1.06,2.59L310,91.13l-.76.56c-.79.62-1.56,1.67-2.39,1.72-.66,0-1.57-1-2.06-1.8a59,59,0,0,1-4.24-7.28c-4.65-10.32-5.64-21.14-3.91-32.25Zm116.21,6.89a10.94,10.94,0,0,0,1.23,3.14c.6.72,1.77,1,2.68,1.43.28-.85,1-1.82.78-2.54-.82-2.93-2-5.76-2.88-8.67a21.92,21.92,0,0,1-1.11-5.21c-.05-.92.77-1.88,1.19-2.83.94.7,2.19,1.2,2.75,2.12a47.28,47.28,0,0,1,2.58,5.7l-2.47.77c4.26,1.15,4.88,4.54,5.48,7.93.08.44-.15,1.14.07,1.32,1,.79,2.12,1.44,3.19,2.14.45-.93,1.46-2,1.25-2.75a43.41,43.41,0,0,0-3.12-8.54c-2.28-4.36-5-8.52-7.51-12.76-.1-.16-.37-.22-.78-.46L415,41.28l-2.58-1.53-2.5,2.73-4.6-4.85c-1,2.37-1.82,4.38-2.85,6.86.68.12,1.81.71,2.49.38,3.77-1.87,5.89-.57,5.86,3.76l-1.39.83c-5.82,1.17-6.24.91-9-4.81a15.09,15.09,0,0,0-2.4-2.76c-1.14,5.08-3.52,9.11-2.1,14,.89,3.07.43,6.52.59,10,5.22,1.24,7-.47,5.51-6.24-.51-2-1.44-3.8-2-5.75a30,30,0,0,1-.58-3.93l1.26-.36c1.62,3.74,3.62,7.36,4.74,11.24.82,2.83,2.36,4.43,5.89,3.93,3-.43,1.53-2.65,1.58-4.24a8.42,8.42,0,0,0-.08-1ZM392.85,39.75l2.21-2.82a12.93,12.93,0,0,0-3.56-.08c-.76.18-1.41,1.08-2,1.77-3,3.79-4.4,3.66-6.84-.54a4.05,4.05,0,0,0-2.11-1.4c-.32-.11-1.33.66-1.29.77a20.78,20.78,0,0,0,1.12,2.14c.49,1,.91,1.95,1.36,2.92a26.39,26.39,0,0,1-4.4.46c-.47,0-.88-1.1-1.32-1.7l-.21.83h-4.12l-1.14,3.42c-3.09-.39-3.32-4.85-7.83-4.17,4.95,4.19-.35,5.85-1.33,8.56l3.51,1.29a3.78,3.78,0,0,1,.38-1.28c.7-.9,1.4-2.21,2.31-2.41a3.14,3.14,0,0,1,2.63,1.6c.44,1.11.54,3.24-.1,3.71-1.67,1.21-3.84,2.38-5.79,2.33-1.26,0-2.54-2.16-3.67-3.48a6.6,6.6,0,0,1-.78-2l-5.36.78c.93,2.44,1.94,4.83,2.75,7.29a6.23,6.23,0,0,1,.45,3.49c-.89,2.83,1.19,9.6,4.45,12.14l1-10.49h1.37c.25,1.62.51,3.24.76,4.88,5.84,1.36,7.41-.08,6.25-5.76-.3-1.51-.57-3-1-5,3.05,2.91.85,9.21,7.34,9.28a21.55,21.55,0,0,0-.48-2.83c-.62-1.86-.16-3.38,1.84-3.47.76,0,1.91,1.39,2.32,2.39.64,1.55.7,3.32,1.2,4.94.2.62.95,1.06,1.45,1.59a7.06,7.06,0,0,0,1.33-1.71,16.65,16.65,0,0,0,.6-2.94l1.13,0,.6,4.68c2,.19,3.36-.15,3.07-2.66a7.25,7.25,0,0,1,.18-2.31c.6-2.94,1.25-5.87,2-9.28h-9.4l-3-3.75c4.51-.23,2.51-3,2.78-4.82.17-1.1.38-3,.92-3.1a5.42,5.42,0,0,1,3.75.65c.84.5,1.08,1.92,1.8,2.76a22.49,22.49,0,0,0,2.63,2.32L394,46.28c.44-.77.86-1.55,1.23-2.21ZM337.16,66l1.11-.29a53.31,53.31,0,0,0,2.35,6.86c.51,1,1.95,1.63,3,2.43.25-1.21,1-2.55.67-3.6-1-3.57-2.59-7-3.59-10.57a15.38,15.38,0,0,1-.31-6,3.64,3.64,0,0,1,2.31-2.36c.57-.15,1.93,1.1,2.3,2,1.38,3.28,2.58,6.64,3.68,10,.74,2.26,1,4.7,1.91,6.86.42,1,1.89,1.7,3,2,.45.13,2-1.36,1.87-1.7q-2.47-7-5.34-13.81c-.78-1.87-2.38-3.52-2.71-5.42s.59-3.7-1.92-4.67a43.76,43.76,0,0,1-5.37-3.08l2.94,5-10.62-1.93-4.15,7.53,2.36,3c.39-1.3.54-1.71.63-2.13.41-1.89,1.21-3.26,3.49-2.48,2.05.7,2.82,1.92,2,4.16-1.21,3.37-4.25,3.76-6.79,5.08-1.89-3.43-3.54-6.45-5.5-10-.45,3-.24,5.41-1.18,7.17-1.94,3.66-1.39,7.27-.71,10.94s1.56,7.21,2.37,10.87c4.58.37,5.54-.74,4.08-5-.88-2.57-2-5.08-2.69-7.69a34.37,34.37,0,0,1-.66-5.39l1.05-.23,7.31,14.78c5.43.69,6.37-.39,4.7-6.12C338.15,70.14,337.68,68.06,337.16,66Zm-26.3-10.43c-.52,1-1.05,1.55-1,2a5.81,5.81,0,0,1-2.81,6.34c-.48.32-.43,1.57-.45,2.39,0,1.19.15,2.39.11,3.58-.11,2.93-.37,5.86-.39,8.79a4.47,4.47,0,0,0,1,2.26c3.41-1,4,2,5.46,3.73.31.37,1.1.33,2.32.64l-4.19-13.77c2.34-2.45,1.19-5.64,1-8.71-.08-1.67,0-3.35,0-5l.82-.08ZM429.58,43.28c-2.12-2.11-3.66-3.88-5.46-5.33-.69-.55-1.95-.4-2.95-.56.28.82.31,1.88.86,2.4,1.55,1.46,3.91,2.36,4.86,4.08,1.79,3.24,3.58,6.82,3.92,10.39.27,2.91,1.31,9.06,4.86,11.92,0-2.6.76-5.4-.14-6.13-3.29-2.65-2.46-5.52-1.61-8.69a7.42,7.42,0,0,0-.14-2.29c-3.29-.83-3.48-1.64-2.06-4.64.71-1.51.67-3.39,1-5.1l-1.09-.21C431.09,40.16,430.59,41.21,429.58,43.28ZM319.86,74.37l.63-.05c0-4.09-.37-8.23.13-12.27.36-2.94,1.69-5.68.05-8.69-.28-.51.82-1.75,1.25-2.68.34-.72.62-1.48.92-2.22-.89,0-2.23-.32-2.59.13a11.77,11.77,0,0,0-2.57,4.55c-.71,3.28-1.39,6.51,0,10.06S319.17,70.63,319.86,74.37Zm32.83-29.2,2.81-2.61c-.75-.53-2-1.65-2.17-1.49a15.56,15.56,0,0,0-4.12,4.13c-.41.72.68,2.39,1.31,3.51.16.27,1.69.19,1.74,0a19.14,19.14,0,0,0,.43-3.14C352.72,45.27,352.69,44.94,352.69,45.17Zm14.86-33.83c-.07-.31-.13-.62-.19-.93-4.34-1.26-12.06,0-13.89,2.69Zm-45.31,6.21C318.62,19,312,28.19,312,32.18Zm68.67-1.38c-2.44-3.11-12.63-6.09-16.5-4.64ZM431.49,31l-.85.33c1.52,3.92,3,7.83,4.75,12.26C437,40.54,434.67,34.07,431.49,31ZM406.93,69.58l.29.94,6.87-2.08C410.91,66.43,409.64,66.61,406.93,69.58ZM321.51,31.49l1,.87,5.88-6.62-1-.85ZM358,83.34l-1.79-.73c-.52,1.24-1.05,2.49-1.58,3.73.66.19,1.82.65,1.89.52A32.25,32.25,0,0,0,358,83.34ZM308.34,39.08l1.51.48c.62-2,1.23-4,1.85-6l-1.5-.47ZM386,70.76,384.87,72l4.85,3.63.85-1Z"/><path class="cls-1" d="M285.11,474.37c-.29-2.2-.58-4.4-.94-7.21-2,1-3.46,1.88-5,2.45-6.92,2.59-14,4.17-21.48,3.25a11.2,11.2,0,0,1-2.91-.87c-3.16-1.33-4.9-.38-5.29,3.09a47.92,47.92,0,0,0-.14,5.09c0,7-.06,14.06,0,21.09,0,2.29.45,4.57.74,7.27H238.22l-.18-1c2-.4,3.93-.82,5.9-1.19,2.7-.52,3.31-2.15,1.44-4.37,4.48-2.19-.71-3.54-.46-5.44,2.74-1.49,2.78-3.34,1-6.64-.19-1.78-.37-3.58-.57-5.36a6.16,6.16,0,0,1-.23-1.29c.44-3.91,1-7.8,1.34-11.71.21-2.6,0-5.23,0-7.85l-1.2,0-1,4.61h-.89c-.1-1.25-.21-2.5-.32-3.75l-.86-.06c-.37,5.95-.74,11.89-1.15,18.41.44-.14,0,.11-.55.16a7.76,7.76,0,0,1-1.52-.13c-.18-4.08-.36-8-.53-11.94l-1-.16c-.52,2.46-1.05,4.91-1.57,7.37l-.77,0c-.14-1.7-.32-3.41-.43-5.11-.22-3.67-1.56-4.59-5.17-3.89-2.46.49-5.28,1.43-6.09-1.94l-5.17,1.62c-1.69-3.66-4.52-.69-6.7-1.49,1.86,2.81,4.41,1.46,6.75,1.44-.54,1-1.44,1.94-1.54,3a48.37,48.37,0,0,0,.17,5.76c.07,4.19-.69,4.7-5,3.28-.38-3.56-.76-7.16-1.16-10.94l-4.63-.2c.48-5.52-3.08-6.19-7.34-6.59-5.23-.5-5.18-.74-5.36-6.07,0-1.11-.6-2.21-.63-3.32-.11-3.51,1.12-4.75,4.27-4.5,5.05.4,8-1.85,9-6.79.18-1,.74-2.14.45-3-.39-1.09-1.74-2.88-2.2-2.74-4,1.18-6.45-.87-9.1-4.46l.3,3.3-.81.71c-.87-.91-2.21-1.68-2.52-2.75-.67-2.26-1.12-5,2.73-4.7,8,.61,16,.91,23.95,2.13,16.31,2.53,31.57,8.69,46.8,14.76,1.44.57,2.51,2,3.65,3,1.47-.09,3.32-.78,4.54-.19,5.33,2.62,10.73,5.26,15.51,8.71,1.18.85,1,6.35-.11,7-3.37,2-3,4.69-3,7.58,0,1.25,0,2.49-.06,3.74Zm-45.4-37v16.21C242.13,450.67,242.17,440.69,239.71,437.35Zm5.53,3H243.9v14h1.19C246.67,449.68,245,445,245.24,440.34Zm-17.38-.42,6.27,13.43.8-.4C233.54,448.12,232.75,443,227.86,439.92Z"/><path class="cls-1" d="M186.89,475.64l9.29-2.31c-3.85,1.46-5.46,4.7-4.61,8.86.76,3.68,2,7.5-.17,11.23-.31.51-.45,1.62-.15,1.91,2.53,2.42,2,5.58,2.42,8.57a5.91,5.91,0,0,0,1.88,3,9,9,0,0,0,3.39,2.23c5.89,1.81,6.22,6.53,6.13,11.42A30.85,30.85,0,0,1,203.8,529c-2.69-7.38-10.67-11.73-10.45-20.52l-.84.12c0,1.54-.41,3.22.07,4.6,2.3,6.66,1.95,13.59,2.42,20.43.51,7.58,1,15.16,1.6,22.72a3.24,3.24,0,0,0,1.59,2.22c5.64,2.59,11.34,5.06,17.05,7.51a4.7,4.7,0,0,0,3.39.18,9.15,9.15,0,0,0-1.47-1.51c-1.68-1.09-2.07-2.14-1.72-4.42.48-3.08-.42-6.39-.89-9.58-.05-.33-1.19-.5-1.82-.75-.3.84-1,1.83-.83,2.51.7,2.17,1.28,4.13-1.33,5.83-.65-1.63,2.11-4.53-1.78-4.35.5-3.15,1.5-5.47,4.68-6.33.64-.17,1.08-1.52,1.39-2.41a26.38,26.38,0,0,0,.75-3.36,5.55,5.55,0,0,1-2.3.26c-1.65-.5-2.75-1.82-1.13-3.22,1.84-1.59,2.59-2.52,1.36-5.24-.65-1.43,1.62-4.22,2.64-6.35.26-.53.79-.93.86-1.7-5.31,1-4.07,8.28-9.12,9.93-.8-2.24-2.25-4.17,1.51-5.17.84-.22,1.06-2.73,1.71-4.6,3.39-1.58,3.41-2.16,2.29-6.42-.41-1.55.66-3.5,1.09-5.46l-2.51.19c1.61-6,2.19-11.88.14-18-1.34-.91-3.19-2.06-4.86-3.44-.41-.33-.43-1.49-.21-2.12.17-.48,1.19-1.16,1.51-1A33.57,33.57,0,0,1,213,492c.45.28.65,1.11,1.1,1.24,4.57,1.36,4,5.06,4.15,8.59.8,15.4,1.75,30.8,2.57,46.2.13,2.46.94,5.2-2,6.92-.49.28-.39,1.58-.71,3.16l3.65-2.56c0,5.63.45,10.52-.19,15.26-.33,2.5-3.17,1.59-5.09,1-1.71-.5-3.49-1.67-5.08-1.45-5.65.79-8.83-2.91-12.33-6.13-3-2.78-5.75-5.78-10.5-5.81-3.6,0-5.87-3.92-5.66-7.89.06-1.09-1-2.25-1.71-3.51.55-2.27,1.16-4.78,1.8-7.46-3-2-3.29-9.39,0-13.66-3.53-.91-2.86-3.9-3-6.35a51,51,0,0,1,.42-6.73l-1.14-.12a14.61,14.61,0,0,0-.4,2.35c-.08,6.23-.09,12.47-.18,18.71a11.55,11.55,0,0,1-.51,3.67c-.26.73-1.17,1.23-1.78,1.83a10.41,10.41,0,0,1-1.67-1.79c-2.1-3.63-2.25-7.62-2.1-11.69.11-3.22,0-6.45,0-10.28,4.22,2.16.09,5.93,2.67,8.4.52-.92,1.32-1.71,1.39-2.57a78.21,78.21,0,0,0,.52-11.53c-.2-3,0-6.79-4.69-7.4-.37-.05-.58-2.5-.5-3.82,0-.23,2.37-.82,2.65-.47a24.48,24.48,0,0,1,2.73,4.81,14.86,14.86,0,0,0,1.78,3.6c.33-2.49,2.47-4.35,1-7.35-1-2.09-.51-4.95-.72-7.47-.43-5.37-.89-10.74-1.38-16.57-2.19-.17-4.6-.43-7-.52a5.06,5.06,0,0,1-4.83-6.26,7,7,0,0,1,1.55,1.21c1.78,2.62,4.3,3.5,7.34,3.45,4.16-.06,8.31,0,13.33,0-.9,1.61-1.19,2.14-1.48,2.67-3.77.82-4.65,3.24-2.59,7.58C185.22,480.63,186.05,478.14,186.89,475.64Z"/><path class="cls-1" d="M210.72,318.32c-3.33,1.43-6.71,2.77-10,4.32s-6.15,3.34-9.33,4.8a21.35,21.35,0,0,1-4.52,1c-.22-1.33-.45-2.65-.65-4a15.16,15.16,0,0,0-1.26-4.65c-.3,4.4-.68,8.79-.86,13.19-.15,3.4-.05,6.8,0,10.21,0,2.11-.92,3-3.09,3.06a94.58,94.58,0,0,0-9.81.73c-2,.25-2.79-.5-2.82-2.32a67.07,67.07,0,0,0-.46-8.82c-1.49,3.13-3,6.25-4.64,9.69-1.68-.23-2-1.69-1.47-3.51a5.47,5.47,0,0,1,1.57-2.59c5.64-4.58,2.74-10,1.54-15.24-.22-.93-1.59-2.25-2.39-2.22-1.16,0-2.28,1.14-3.42,1.78l.44.76,4-1.63c-.33,1.9-.57,3.2-.81,4.57,2.66,1.73,2.83,3.83,1,6.57-2.57,3.87-6.74,5.17-10.55,6.92-1,.47-2.92-.94-4.41-1.48l.21-1a93.23,93.23,0,0,1-10.53,1.85c-1.61.12-3.31-1.12-5.62-2-4.43.85-8.88-1.89-13.59-3.4-1-.33-2-.71-3-1.11-5.36-2.14-11.31-2.11-16.57-4.42-2-.89-3.49-3-5.27-4.47a41.93,41.93,0,0,0-5-3.86,57.65,57.65,0,0,0-5.84-2.75,33.66,33.66,0,0,1,4.32-.58q30.59-.06,61.17,0c1.22,0,2.44.1,4.39.19v18.58l.84,0c0-4.71,0-9.42,0-14.13,0-4.4.22-4.61,4.6-4.62q24,0,47.92,0A25,25,0,0,1,210.72,318.32Z"/><path class="cls-1" d="M281.56,643.23l.09-2c3.11.62,3.55,1.77,2.34,7.61,1.87-.42,4.3-.32,4.7-1.18a11.69,11.69,0,0,0-.32-10l-1,9.43c-2.58-2.75-2.05-5.37-1.77-7.94.16-1.88.33-3.76.49-5.57,4.3-1.27,4.32-1.31,3.39-4-3.24,2.63-4.67,2.57-6.2-.22-3.69,2.34,4.31,5.44-1.12,7.88l3.47,1.89-4.72,2.09a52.35,52.35,0,0,1-3.19-4.29c-.18-.3.43-1.46.93-1.71a12.18,12.18,0,0,1,3.25-.52L279.38,633c-.51-1.79,3.39-4-.91-5.35l3.46-3-2.77-.29c.17-1.89.33-3.54.51-5.41,1.2-1.54,2.64-3.37,4.08-5.2-2.77-1.88-2.83-2.74-.15-5.43l-2.66-.59c.46-2.21,1.37-4.3,1.19-6.28-.22-2.57-1-5,2.81-6.7l-3.56-.92c.9-3,1.76-6,2.63-8.89l-1.61-.08-.38-1,4.73-2.19-3.11-.8c0-6.07,3.59-12.19-.15-18.36H292l.35.77-3.21,2.25c.4,2.42.82,5,1.25,7.61l.72.2c.21-1.24.5-2.47.59-3.71.35-4.73,2.4-6.62,7-5.9.79.13,1.86,1.84,1.88,2.83.1,6.36.08,12.71-.15,19.06-.56,15.41-1.31,30.81-1.87,46.22-.73,20.17-1.35,40.35-2,60.52-.11,3.39-1.27,3.91-6.3,2.58l2.78-1.75c-3-.77-2.82-2.28-2.55-4.78.72-6.72.44-13.53.78-20.29.23-4.46.86-8.9,1.29-13.35.33-3.36.57-6.73.94-10.09.39-3.57,1-7.11,1.3-10.68.46-5.91.73-11.84,1-17.76,0-.49-.24-1-1.21-1.57-.42,2.67-1,5.32-1.23,8q-3,34.73-5.86,69.46c0,.56.13,1.22-.1,1.67a7.29,7.29,0,0,1-1.41,1.48c-.33-.53-.93-1.06-.92-1.58,0-1.35.45-2.69.48-4,.07-4,0-8.08,0-12.27l-3.51-1.07-5.35-1.83-2.81-5.37,9.77,3.94c.33-.72,2.11-2-.31-3.77-.38-.28.14-1.76.25-2.69l1.09,0,1.85,3.5v-5.27l-5.33-1.31a13.85,13.85,0,0,0-.77,2.67,24.5,24.5,0,0,0,.09,3.42l-3.7-.4,2-5.52-4.13.37c1.25-1.51,1.94-2.35,2.77-3.37l-1.58-2.06.47-1,10.3,4.1c-.72-2.76-1.38-5.06-1.83-7.39-.05-.28,1.1-.79,2.25-1.57-.29,1.59-.45,2.49-.62,3.38l1.06.34c.4-1.48.8-2.95,1.24-4.59a54.49,54.49,0,0,1-6.49-2.58,2.82,2.82,0,0,1-.48-2.71c1.11-1.43,1.68-2.46-.3-3.48Zm8.35-56c-5.13,2.27-5.13,2.27-3.28,5.09Zm-3-10.66-.51.81,5.13,3.54C291.75,576.51,288.89,577.13,286.91,576.53Z"/><path class="cls-1" d="M197.83,681.43a29.47,29.47,0,0,1-.07-4.09c.23-2,.67-4-1.93-5-.25,3-.49,5.84-.72,8.68l-1.73,0c-.28-3-.55-6.07-.83-9.11l-.54-.1L188.77,680l-1.76-.63-3.38-2.9,2.47-2c-.48-4.23-1-8.95-1.54-13.66,0-.22-.06-.56.06-.64,2.73-2,.74-3.63-.63-5.34.76-1,1.74-1.73,2.06-2.72a4.15,4.15,0,0,0-.11-3.26,11.17,11.17,0,0,1-.76-11.47c1.11.09,2.21.22,3.31.27a5.23,5.23,0,0,0,3.24-.74c-1.15-.46-2.29-.93-3.57-1.46l.71-2-4.6,1.72V616.31l1.44-.59c-1-2.42-2-4.76-2.93-7.09l1-.65,1.62.95.76-.37L184,604l1.43-1.8c-3.1-2.24-3-4.81,0-7.36-.73-1.57-1.87-3-2-4.59-.12-1.31.93-2.71,1.61-4.47.27.45.23.32.15.26-1.32-1-4.4-.79-3.36-3.2.53-1.24,3.34-2.18,5-2.08,5.39.32,10.76,1.12,16.11,1.89a22,22,0,0,1,4.19,1.51l3.2-2.17c0,5.44-3.34,8.9-8.09,8.75-4.47-.14-4.54-.12-4.44,4.46.38,17.57.81,35.15,1.18,52.72.05,2.27.74,4.84-2.23,6.13-.32.14-.22,1.24-.36,2.27,2.87-.83,3.43.69,3.28,2.9q-.31,4.57-.61,9.15l-4-2.56c.24,1.9.43,3.39.63,4.93l3.47-.71a59.61,59.61,0,0,1-.06,6.6A29.15,29.15,0,0,1,197.83,681.43Zm-11-36.38c1.42,1.81,3.35,3.17,3.51,4.71.27,2.64-.76,5.38-.89,8.1-.21,4.24-1.78,8.84,2.65,12.3.32-.27,1.1-.67,1.07-.95-.39-2.94-.27-6.18-1.54-8.71-1.62-3.2.57-5.84.19-8.79-.22-1.69.92-3.56,1.63-5.93-3,1-3.07-.18-2.82-2.06.12-.83-.8-1.81-1.25-2.72l-1.86-.11C189.82,643.8,187.79,644.48,186.79,645.05Z"/><path class="cls-1" d="M217.42,205.85,204.67,207c0-.56-.07-1.11-.1-1.66l12.8-.66.07-1.1a11.63,11.63,0,0,0-3-.44c-4.22.51-8.45,1-12.63,1.82-2.87.53-7.86-3.46-7.9-6.75-.09-8.28-.07-16.56-.09-24.85,0-3.62,0-7.24,0-10.86,0-2.55-1.48-2.89-3.63-2.7a16,16,0,0,1-3.71-.51c.42-1.34.94-2.66,1.23-4,.36-1.66.52-3.35.78-5,.13-.85.28-1.7.42-2.55l1.14-.4a21.47,21.47,0,0,1,2,4.21c.39,1.66.24,3.45.66,5.26,2.45-3.45,1.81-9,7.59-9.81l.46,5.86c1.43-9.15.77-7.57,10.46-8.71a56.72,56.72,0,0,1,6.12-.14c2.72,0,3.89.93,3.26,4-.57,2.77-1.12,5.66,1.52,8.2.91.89.65,3.21.58,4.86-.27,6.56-.76,13.1-1,19.66s-.34,13.07-.41,19.6a8.92,8.92,0,0,0,1.07,5.23c.87,1.39.9,3.31,1.6,6.25,3.66-7.28,8.57-4.31,13.06-3.13,1.38.37,2.47,1.87,3.7,2.85l-.7,1.29-10-3.35v2.82c-7.08,1.22-13.16-1.76-20.31-3.9l7.93-.78Zm-4.85-17.65a75,75,0,0,1-7.76.5c-.94,0-1.85-1.11-2.77-1.71.72-.71,1.38-1.94,2.18-2,3.46-.44,7-.52,10.46-.8,1.07-.08,2.12-.39,4.15-.78-1.39-.76-1.77-1.15-2.13-1.14-4.62.22-9.27.26-13.84.9-1.32.19-2.8,1.94-3.47,3.32-1.2,2.48.12,4.59,2.63,4.5,4.74-.16,9.48-.52,14.2-1,.51-.05.93-1.15,1.38-1.76l-1.49-.77,1.91-1.54-.33-.88c-4.45-.27-8.89-.41-13.16,1.17l0,.9Zm7-26.58v-1.16l.69-3.83c-.66.2-1.49.22-2,.65-2,1.84-10.29,2.09-12.55.63-1.09-.69-3.82-1-4-.65a12.05,12.05,0,0,0-1,5.36c0,.65,1.75,1.71,2.69,1.7,4.8,0,9.6-.28,14.38-.67C218.54,163.61,219.05,162.33,219.6,161.62Zm-2,34.19c.5-2.62-1.45-1.95-2.72-1.9-3.62.14-7.25.42-10.87.65l-.05-.79,14.19-1.19-.15-1.69-18.06.91c-.25,2.88-.46,5.42-.7,7.95s1.37,3,3.44,2.83c4.07-.27,8.14-.46,12.21-.72a25.64,25.64,0,0,0,2.74-.45l-.05-1.12c-5.07-1.54-10.32,1-15.42-.22,4.22-.63,8.48-.71,12.7-1.1,1.16-.11,2.23-1.15,3.34-1.76Zm1.53-28.3c-1.18.19-2.23.29-3.25.55-3.91,1-7.77,2.15-11.71,3-4.68,1-5.49,1.95-4.93,7.38H211v.66l-11.13,1.36a5.3,5.3,0,0,0,3.62,1.45c3.27-.07,6.53-.49,9.8-.5,6.49,0,4.65-.43,5.41-5.55.11-.73-1.39-2.43-2.16-2.44-3.83,0-7.67.3-11.49.61-.6.05-1.16.64-1.74,1l.2.8,11.21-.57,0,.68-12.61,1-.68-1.21c.95-.86,1.81-2.31,2.88-2.48a60.75,60.75,0,0,1,9.45-.63C218.34,172.55,218.34,172.65,219.11,167.51Zm0-1.25c0-.53,0-1.06-.07-1.59a70.63,70.63,0,0,0-19.57,1.17l.06,1.29Z"/><path class="cls-1" d="M9.13,540.92a45.36,45.36,0,0,0,4.74-3.42c.87-.8,1.85-2.13,1.77-3.15a87.09,87.09,0,0,0-1.48-8.86l-1.28,1.77c-2.05-.41-3.11-7.18-1.33-10.48l.46,5.06.79.09a22.8,22.8,0,0,0,.69-2.27c2.1-11.16,9.86-18.53,21-20.85,6.27-1.31,11.58.31,16.89,3.19,2,1.06,4.66,1.32,6,2.84a62.36,62.36,0,0,1,7.85,10.89,7,7,0,0,1,0,5.71c-.75,1.47-2.91,2.31-4.57,3.21-2.78,1.51-5.59,3-8.5,4.21-5.07,2.16-10.11,4.53-15.38,6.08-7.93,2.32-16,4-24.08,6-1.06.26-2.13.49-3.19.73ZM50.28,515.8c-.65-1.46-1.34-3.47-1.55-3.42-1.54.36-3.43.75-4.36,1.86-1.8,2.14-.41,11.53,2.12,14.38V518.14c1.23,1.61,2.29,3.51,3.88,4.72.41.32,2.45-1.48,3.28-2,1.43.94,3.08,2.9,4.69,2.87,3.45-.06,4.36-3.16,4.4-6A6,6,0,0,0,59,512.14c-.16,3.43-.3,6.6-.44,9.77l-1.32.1a63.23,63.23,0,0,1-1.49-7.74c-.18-2.62-1-4.3-4-5.36C52.69,512.15,52.18,514.25,50.28,515.8Zm-15.91,9.94c1.94-.17,3.92-.42,5.91-.5,2.62-.09,2.42-1.53,2-3.47-.42-2.12-.33-4.34-.69-6.48a9.38,9.38,0,0,0-1.35-2.55c-.34.19-.67.39-1,.59.29,1,.57,2,1,3.63a27.38,27.38,0,0,1-3.87-.4,4.55,4.55,0,0,0-5.73,5.23,7.51,7.51,0,0,1-.4,2.16c-.17,1.24-.74,2.68-.31,3.67.36.81,1.93,1.08,3,1.59Zm-6.26,3.76c-.22-2.57-.33-5.71-.85-8.78-.14-.83-1.52-1.46-2.34-2.18l-.78.76.88,2.83c-2.19.53-4.25.86-6.17,1.54-2.43.88-2.27,3.1-2.17,5.16.09,1.9.28,3.79.42,5.69l1.11-.07c.3-1.18.61-2.36.67-2.63,2.09.09,3.69.5,5.08.12S26.67,530.38,28.11,529.5ZM20,513.78c8.4-10.33,18.68-13.42,31.74-7.78C44.23,497,23.94,502.38,20,513.78Z"/><path class="cls-1" d="M240.7,585.38c-1.07-2.45.23-3.43,2.37-4.19,4.35-1.53,6-5.3,4.46-8.37L240.6,575l-.49-1L247,568.4l-7.28-4.48,3.19-2.41-3.86-2.4c2.41-.65,5.46-.09,3.42-4l4,.9c-.86-2.67-1.63-5.09-2.45-7.64l1.77-.22c.38-2,1.19-3.91.9-5.6-.26-1.49-1.76-2.76-2.92-4.42l6-2.11c.32,5.53.79,10.45.88,15.38.38,20.4.51,40.8,1,61.19.42,16.76,1.36,33.51,1.83,50.27.09,3.33-.92,6.69-1.54,10.76-3-2.77-.62-6.64-3.76-8.42,2.14,3.59,0,4.63-3,5.81l.67-3.63-4,1.05c-1.38-4.87-.52-6.51,4.55-6.94-1.53-1.48-2.47-2.82-3.76-3.55-3.44-2-4.6-4.61-3.25-9.08,1.13,2.58,2.12,4.85,3.5,8l1.51-3.3,4.14,3.08.59-.79-6.78-7,6-3.19-.63-1.13-4.24,2.29c.54-1.86.89-3.09,1.24-4.31l3.55.53c-.45-2.43-.8-4.3-1.12-6-.9,2.06-1.65,3.81-2.41,5.55l-1.42-.73c-.25,1-.5,2-1,3.79-1.06-3-1.81-5.09-2.64-7.44,5.49,1.23,4-5.37,7.64-6.81l-.87-1a7.47,7.47,0,0,1-1.94,1.53,16.33,16.33,0,0,1-3.24.47c.15-1.07-.09-2.54.52-3.14,2-1.94,4.1-3.52-.15-5.22-.25-.1,0-1.38,0-2.13l-2.31-5.73,3,1.07c1.76-2.58-3.05-6.56,1.8-8.48,1,3,2,6.07,3,9.13l1.54-.47q-2-7.33-3.92-14.67l-.69-.08-.67,4.14c-2.35-2.25-1.81-4.73-.83-6.79.46-1,2.42-1.21,4.14-2v-2.44l-6.3,2.66,1-6.7,1-6.14,1.35-.95,1.94,4.62,1.53-1.39c-.89-1-1.61-2.53-2.73-2.95S242,585.12,240.7,585.38Zm5.49,32c-1.59,2.14-1.15,6.11-.07,6.94s2.36,1.94,3.7,3.06C251,623.42,245.83,621.84,246.19,617.4Z"/><path class="cls-1" d="M152.87,395.3l-.68,2.78-1.24-.24a22.1,22.1,0,0,1,1.07-4.2c1.06-2.28,2.15-4.38-2.13-6.33l5.69-1.17c-6.53-2-6.53-2-8.77,4.65l-1.5-4.05c-.54,1.89-.94,3.27-1.33,4.65l-1-.1q-1.51-18.15-3-36.3l1.41-.21c3.34,2.76,1,7.19,3.05,11.61.74-1.69,1.61-2.71,1.5-3.6-.57-4.43-1.47-8.81-2.09-13.24-.16-1.19,0-3.39.44-3.54,1.69-.5,3.58-.32,6.28-.44,1.9-2.77,5.41.43,8.5-.21l.64.76-4.17,4.25,2.29,6.3.52-.06.26-3.89c1.73,2,2,3.47,1,5.53a63.25,63.25,0,0,0-2.74,7.3l.73.45,2.33-1.11c.19.56.5,1,.45,1.36-.52,3.61-1,7.22-1.67,10.82-.41,2.31-.56,4.21,1.7,6,1,.82,1.49,3.44,1,4.85-1.82,5.49-.5,10.88-.1,16.31.1,1.22.21,2.45.29,3.41l-7.91-1.1.05-.64,4.74-2.06-.27-.75h-8.77l-2.79-5.84.81-.74c1.21,1.25,2.42,2.51,3.85,4,1.4-1.25,3.9-2.09,2.74-5.18l3.65-.86c-.52-1.31-1.14-2.9-2-5.09Zm-5.28-22.69-2.83-1.67c.31,4.21.59,8.18.91,12.54l2.9,1.13ZM155,379.4l.45-.12L154,368.74l-.58.07-1.47,4.64Zm-3.36-18.88,1.24-.18-1.91-10.15-1,.19Q150.76,355.45,151.61,360.52Z"/><path class="cls-1" d="M120.88,199.34c.25-4.59.52-9.42.78-14.21,3.57-1.23,3.79-1,3.58,2.41-.16,2.53,0,5.07,0,7.75,2.85-.16,4.86-.2,6.85-.44.53-.07,1.39-.73,1.4-1.15.12-3.27.07-6.55.07-9.36l-6.42,1.17-.73-1c.91-.79,1.7-1.91,2.76-2.3,3.65-1.36,4.81-3.55,4.35-7.58-.56-4.91-.1-9.94,0-14.91,0-.41.57-.8,1-1.29l2.38,5.36c-1.94,1.54-2.53,6.59-1,10.13,1.34-.71,2.66-2,4-2,1.82,0,3.65,1,5.91,1.65-3.38,1.1-6,1.85-8.54,2.84-.74.29-1.22,1.28-1.82,1.95.77.53,1.5,1.46,2.3,1.53,2.82.23,5.67.09,8.5.25a23.37,23.37,0,0,1,3.64.77l0,1.11a17.27,17.27,0,0,1-3.17.73c-2.72.08-5.45.11-8.16-.08s-3.5,1-3.37,3.39c.07,1.25,0,2.5,0,3.75.15,2.28.58,3.7,3.71,3.18s6.48.28,9.72.19c6.31-.19,12.61-.51,18.9-1a3.48,3.48,0,0,0,2.3-2.39c.29-2.58-.21-5.24.08-7.81.81-7.13-4.67-8.5-10.53-8.31-2.14.07-4.25.77-6.39.84-.88,0-1.8-.82-2.7-1.27.51-.93.88-2.55,1.53-2.67,3.56-.63,3.23-3.16,3.22-5.69q-.07-21.1-.07-42.21c0-1,.12-1.95.2-3.25,3.56,3.73,4.65,7.8,4.62,12.52-.07,10.89.22,21.78.32,32.67a12.53,12.53,0,0,1-.48,2.44l-.83,0c-.28-2.59-.55-5.19-.82-7.78l-1.25.08c0,3.15-.46,6.41.2,9.41.33,1.51,2.66,2,4.54.6,2.07-1.56,4.32-2.66,6.4.49a7.36,7.36,0,0,0,.54-1.54c.13-1.9.59-3.35,3-3.17,2.64.19,2.59,2,2.58,3.9,0,4.77,0,9.53.06,14.3a7.83,7.83,0,0,1-.05,2.7c-1.09,2.7,2.7,6.65-1.69,8.22-2.75,1-5.92.79-8.9,1.1-6,.61-11.93,1.32-17.91,1.75s-12,.5-18,.9A54.77,54.77,0,0,0,120.88,199.34Zm36.25-45.7c2-4.38,1.49-20.53-.94-22.8C156.44,139,155.9,146.33,157.13,153.64Z"/><path class="cls-1" d="M345.54,152.15l-7.27-2.05-.12.78-1.77-1.95c-.26,1.38-.53,2.75-.85,4.43a42,42,0,0,0-5.23-2.23c-11.08-3.16-19.93-10.24-29-16.8-2.79-2-4.08-6.12-6.14-9.4l15.82-5.5c-1.76,5-5.78,6.37-10.18,7.46,3.21,4.56,8.7,3.43,12.88,5.64L310.28,135c2.34,0,4-.06,5.55,0,3.25.14,4.3-2.58,4.95-4.67.84-2.74,2.19-3.37,4.8-3.63s5.4-1.44,8.4-2.3l-1.79-2.17.25-1,5.6,1,2.21,1.89c3.94-1,8.06-1.6,11.76-3.16,4.42-1.87,8.79-1.76,13.31-1.39a31.37,31.37,0,0,1,4,.31c-11.86,4.19-24.39,5.88-36.73,8.36l-.77,1,6.89,4.24-1.3,1.59c-4.16-2.57-7-8.54-13.51-5.51,1.52.58,3,1,4.32,1.66,5.17,2.55,8.68,6.93,12.32,11.2,1.8,2.11,3.81,4,6,6.32-.25.82-.62,2.08-1,3.34ZM317.26,138.4c6.31,3.23,6.31,3.23,8.72-.75l5.53,3c-1.25-1.82-2.5-3.52-4.17-4.4a11.66,11.66,0,0,0-5.49-1.11C319.93,135.19,317.81,135.64,317.26,138.4Zm13,10.63.75,1.22c.78-.17,2.06-.1,2.28-.55,1.28-2.59,3.12-3.75,6.13-3.37l-11.88-5-.4.48,6.63,5.66Z"/><path class="cls-1" d="M96.16,200.5c-3,1.77-3.7,5.48-2.13,10.42,6.17-3.52,11.86-8.19,19.09-9.4l.7,1.31c-.74.55-1.48,1.58-2.22,1.57-5.79,0-9.22,4.46-13.53,7.13-5.68,3.52-11,7.58-16.56,11.37-3.63,2.5-7.31,4.94-10.78,7.28.39-4.28.69-8.55,1.24-12.78.1-.82,1.2-1.5,1.84-2.24a12.53,12.53,0,0,1,.51,2.79c-.08,2-.37,4-.68,7.05,2.39-1.65,4-2.81,5.66-3.89,2.25-1.47,4.53-2.89,6.83-4.28A6.6,6.6,0,0,0,89.54,210c-.06-.56,0-1.13-.06-1.7-.16-7.63-.32-7.68-7.89-7.1a26.61,26.61,0,0,1-5.75-.62c.09,2.75.34,6.17.26,9.58,0,2.14-1.39,3.29-3.65,3s-2.18-1.74-2.16-3.5c0-2-.72-4.11-.43-6.07.39-2.54,1.49-5,2.24-7.47a17.5,17.5,0,0,0,.31-2.5l-3.19,2v-3.81l4.27-3.39c.12,1.57.31,3.56.41,5.56.13,2.77,2.95,4.63,6.73,4.45,3.19-.15,2.65-2.48,2.66-4.47,0-5.86,0-11.72,0-17.4l8.36,1.83a49.56,49.56,0,0,0,0,5.94c.54,4.78,1.21,9.56,2.08,14.29C93.9,199.37,95.33,199.88,96.16,200.5Zm-5.41,10.57,1.36,0c0-4.57.1-9.15-.09-13.72,0-1-1-2.59-1.8-2.7a5.49,5.49,0,0,0-3.52,1.25c-.8.59-1.18,1.75-1.75,2.66l.68,1c1.59-.91,3.17-1.83,5.12-3Z"/><path class="cls-1" d="M246,434.73l-9.71-3.19.07-1.16c.79-.17,1.85-.74,2.34-.43,2.47,1.56,3.87,1.3,4.25-1.85.05-.45.65-.83,1.11-1.38-.85-1-1.62-2-2.3-2.76-2.76-.28-5.93,2.68-7.82-1.45l0,.06a78.88,78.88,0,0,1,8.94-.48c2.09.11,4.12,1.1,6.21,1.53,3.41.71,6.84,1.29,10.5,2-.09-.94-.17-1.76-.3-3l3.31,1.22v3.34c6.58-4.92,13.36-4.75,20.33-2.39,3,1,3.22,1,3.57-2.12A16,16,0,0,1,288,423a14.54,14.54,0,0,1,1.51.68l-.94.59c.49,1.15,1,2.29,1.48,3.44a10,10,0,0,1,1,4.18l-4.31-3.3-.43.36q2.92,4.44,5.86,8.88l-.78.57c-4.53-4.34-7.69-10.38-14.69-12.1.61,4,6.91,6.08,3.49,11.29l-4.35-6.45c-.76,2.79-1.33,3.2-4.67,2.3-4.55-1.21-9-2.23-13-5,1,2.25,1.71,4,.42,6.48-1.35,2.68,1.3,2.52,3.65,2.47l-2.36-2.85c2.81,0,4.92-.25,6.91.12.79.14,1.33,1.65,2,2.54-.95,0-1.9-.05-2.85-.1-.3,0-.59-.12-1.08-.21-.2,3,1.84,3,3.49,2.52,2.9-.76,5.7-1.95,8.56-3,.28.19.73.32.8.57.82,2.84.54,6.26,4.14,7.66a6.22,6.22,0,0,1-.77,2.45c-1.61-3.66-4.48-2-7-1.79.77-2.1,1.4-3.79,2-5.48l-1.41-.94q-1.23,2.18-2.44,4.36l-.55-1c-8.8-.14-16.22-4.5-24.07-7.56l3-3L247,429.24l2.7-2.37-3-1.48c-1.94,3.75-1.87,3.72-.28,6.94C246.65,432.92,246.12,433.92,246,434.73Zm10-.69c1.53-4.67.58-6.76-2.68-7.49a2.91,2.91,0,0,0-2,.8c.29,1.92.8,3.8,1.3,5.89l1.92-3.2Zm12.09-5.1,2.87.51.3-.95L266.18,426c.27,2.33.41,3.57.55,4.82l.67,0Z"/><path class="cls-1" d="M152.21,444.56l-2.12-8.3,3.31.7.67-.82c-3.8-2.73-4.1-6.46-3.32-10.59-5.44-.46-10.32-.17-14.55,3.56a9.39,9.39,0,0,1-4.82,1.92,61.46,61.46,0,0,1-7.44.11c-2.67,0-5-2.84-5.31-6.88,1.05.77,1.91,1.44,2.8,2.05s1.66,1.06,3.1,2c-1.31-4.35,1.24-4.51,3.78-4.58,5.87-.17,11.74-.22,17.6-.5a7.25,7.25,0,0,0,3.92-1.75c-1.68-.46-3.66,2.76-5-1.42l5.65-1.3L141.84,414l5.15-4.11L133.24,412l-.22-.7a6.2,6.2,0,0,1,1.81-.92c3.59-.55,7.18-1.09,10.79-1.4,1.13-.1,2.8.14,3.39.89,2.53,3.19,2.72.64,3.43-1.54l1.79,2.51c1.38-1.06,3-3,3.75-2.71,1.65.6,2.87,2.37,5,4.32l-3.78.57c3.43,3.42,1.49,5.95-1.26,8.71l-1.29-2.49-2.72,2.34a13.6,13.6,0,0,1,2.37,1.67,40.4,40.4,0,0,1,2.66,3.51l-5.3.29-.08,1.18,4.1,1.09,1,5-2.8,2,2.15,1.81.71,9.69-3,2,3,1.48v.92c-1.19.15-2.49.62-3.52.28-.44-.15-.61-2-.43-3C155.35,446.36,154.55,445.08,152.21,444.56Z"/><path class="cls-1" d="M163.73,584.62c.49-4,2.57-6.47,7.1-6.52l-.5-1.18c-1.69.39-3.38.75-5.05,1.19-.69.18-1.34.56-2,.71-.11,0-.63-.93-.54-1a5.76,5.76,0,0,1,1.73-1.34,27.83,27.83,0,0,1,3.18-1l-7.46-3.3c3.58-3,7.79-2.12,9.16,1.15.34.81.78,2.13,1.31,2.21,3.7.52,3,2.72,1.73,5.32,2.36-1.38,3.34-9.66,1.86-12.32,3.1-2.72,4.91-2.43,8.37,1.35l-3.83,5-.37-.12c.28-.94.57-1.89.94-3.15-3.51,2.64-3.55,3.66-1.1,6.13a5.29,5.29,0,0,1,1.23,3.32q.75,20.73,1.3,41.46c.4,14.62.79,29.23,1,43.85.15,8.65,0,17.3,0,26l-1.21.12c-.28-2.83-.56-5.66-.86-8.73l-7,1.42-.44-.84a14.47,14.47,0,0,1,3.63-1.36c2.56-.25,4.52-.81,4.09-4q-.75-5.68-1.54-11.35l-.85,0,2.16-2.69-4.58-1c0-.35-.08-.71,0-.76,1.32-.66,3.56-1,3.83-2,.67-2.33,1.4-5.48.35-7.27-1.77-3,0-5.32.1-7.92a12.26,12.26,0,0,1,.41-1.83l-2.35-.85c.64-3.57,1.22-6.82,1.87-10.43-2.19.55-3.88,3.24-5.31-.16,3.71-1.08,2.12-2.84.85-5.14l3.3,1.76c1.21-2.56,1.81-5.08-1.5-7,2.15-2.4,2.46-4.42-.46-6.44-1.12-.78-1.55-2.62-2.13-4-.17-.39.1-1.36.39-1.45.51-.18,1.49-.13,1.74.21a20.67,20.67,0,0,1,1.57,3.16,6.24,6.24,0,0,0-3.32-7.72c3.69-2.91,4.24-6.57,2.81-10.87-4.75,1.53,1.75,5.2-1.69,6.72a4.77,4.77,0,0,1,.51-8.33c2.4-1.22,2.39-2.36,1.49-4.54-.47-1.13.18-2.71.24-4.09a34.81,34.81,0,0,0-.13-4.52c-.73,3.47-3.31,3.62-5.9,3.28-1.4-.18-3.68,0-3.32-2.84l-.84,2.5-4,1.32Z"/><path class="cls-1" d="M407.44,87.48l2.71,1.28c-4.14,4.73-4,5,1.36,7.55a14.88,14.88,0,0,1-3.48.34c-2.09-.3-3.32.11-4.11,2.35-.5,1.43-2,2.51-3.06,3.75l-.91-.66,1.17-3.52-.52-.51c-2.6,2-5.15,4.11-7.83,6-.56.39-1.62.05-2.45.05l-.6-1.15,2.78-1.82-3.08-2.26a38.67,38.67,0,0,1-3.05,5.42c-.49.64-2,.49-3.05.69a14.72,14.72,0,0,1,.63-2.92A10.52,10.52,0,0,0,385.27,99c-3.24,4-6.59,5.65-11.51,1.91l3.1-1.22.32-.82-5.9-2.42c.9,3.18,1.46,5.19,2.17,7.68-4.9-.6-8.9-1.13-12.91-1.55-1.86-.19-2.05-.83-.66-3.43a34.78,34.78,0,0,1-5.78,1.34,33.3,33.3,0,0,1-5.76-.59V98.72c3.71-.56,7.46-.89,11.09-1.75,2.8-.67,5.42-2.08,8.18-3,.9-.29,2,.07,3,0a18.92,18.92,0,0,0,3.17-.54c.41-.1.81-.78,1.1-.71,3.25.78,5.37-1.7,8-2.61,6.71-2.29,13.57-4.1,20.75-6.21-.1,3.2-5.2,4.91-2.23,9l6.08-5.48Zm-3.54,8c-4.22-.46-8.41-.31-12.14,2.35C396.18,99.57,399.73,95.75,403.9,95.52ZM393.77,89l-4.59,5,1.39,2.47C392.83,94.32,395.88,93.13,393.77,89Z"/><path class="cls-1" d="M63.24,135.93c1.5,3,3,6,4.29,8.52a27.22,27.22,0,0,0-1.26,4.9c-.45,6.21-.83,12.43-1,18.64,0,1.25,1.16,2.52,2,4.17-2.77,1.47-1.46,4.52-.41,7.63l1-1.95c3.22,1.43.67,3.89,1.38,6-3.93-.14-4.31,2.14-4.22,5.09.17,4.83,0,9.67,0,14.5l-1.11.13a68,68,0,0,1-1-7.86c-.11-5.48.75-11.07-2.34-16-2,1-4.69,1.51-5.87,3.13-1.35,1.84-1.42,4.65-1.91,7.07a24.87,24.87,0,0,0-.23,3.47l-1.52,0a39.83,39.83,0,0,1-.79-5.47c-.11-12.14-.2-24.28-.1-36.42,0-1.78,1-3.55,1.81-6.07l2.36,8c-4.21,3.67-1.2,9.12-2,13.91a3.51,3.51,0,0,0,2.33.83A19.89,19.89,0,0,0,58.47,166c2.07,2.52,1.85,3.12-.92,4.1a15.7,15.7,0,0,0-5.3,3.24c2.91-.15,5.52-2.93,9.16.49a30.15,30.15,0,0,0-4.9,1,9.85,9.85,0,0,0-2.41,2c.92.32,1.87,1,2.76.93,5.74-.49,5.72-.54,5.59-6.26-.23-10.2-.46-20.41-.63-30.61a47.49,47.49,0,0,1,.44-4.89Z"/><path class="cls-1" d="M268,120.77a12.31,12.31,0,0,0,3,.47,12.82,12.82,0,0,0,2.92-.92c-.66-.86-1.13-2.12-2-2.53-3.69-1.77-4-2.38-2-5.18.86,3.57,4.17,5.67,7.57,4.33L272,112.05c1.45-.84,3.27-1.31,3.89-2.44.54-1-.29-2.67-.59-4.45l-17.13,5.42-.48-.54a24.18,24.18,0,0,1,3.95-2.82c7.13-3.28,14.8-4.2,22.52-4.65,4.37-.25,8.77,0,13.51,0,0,1.2-.11,2.35-.17,3.77H292c2.35,4.06-.94,5.88-3,9.1.43-3.78.77-6.74,1.1-9.61-4.78-2-5.85-1.81-7.81,1.39h-3.7l-.35.95,7.26,4.63L279.85,114v-3.94l-3.69,2.9,3.74,4.25,2.39-1.76c.17.14.46.25.48.39.26,2.21,1.18,3,3.46,2.08a12,12,0,0,1,4.21-.34c.1,0,.48,1.57.25,1.74a20.89,20.89,0,0,1-3.82,2.17,12.72,12.72,0,0,1-2.61.57c-.21-.56-.41-1.12-.68-1.85-5.38,4.4-12,3.86-18.08,5.81a40.45,40.45,0,0,0,5.35.43,50.53,50.53,0,0,0,5.9-1c-.44.92-.58,1.58-.78,1.6-6,.59-11.89,3.4-18,.71a4.58,4.58,0,0,1-2.13-2.19c-.82-1.93-1.33-4-1.93-5.92l7.41,2.8-3.6,2.9.37.92c1.42-.49,2.87-.92,4.27-1.5s2.67-1.26,4-1.9C266.93,122.15,267.45,121.46,268,120.77Zm7.87-1,.62,1.86c1.43-.6,2.87-1.18,4.26-1.85a7.06,7.06,0,0,0-.39-1.4Z"/><path class="cls-1" d="M220.42,611l-5.9-4.06,2.06-2.2-2.46-1.93,3-4.81-3,.39-.58-.77,4.86-4.76-.43-.69-3,1.37,2.16-9.39-4.89,6.08-.67-.48c1.41-2.66,2.83-5.32,4.38-8.23-.79-1.91-3.09-4.31.23-6.33a6.43,6.43,0,0,1,4.2-1c.77.15,1.63,2,1.68,3.2.42,8.59.64,17.19.94,25.79a43.56,43.56,0,0,0,.5,7.06c.18.85,1.58,1.77,2.6,2.07,2.49.71,5.13.93,7.61,1.68.92.28,1.54,1.52,2.3,2.32-.91.8-1.76,2.22-2.72,2.29-3.26.25-6.56,0-9.84,0-4.33-.08-5.43-1.76-3.84-5.85A17.77,17.77,0,0,1,220.42,611Z"/><path class="cls-1" d="M153.6,525.72q-.37-8-.73-16l.86-.1c.21,2.54.5,5.07.61,7.62.26,6,.29,12,.7,18,.23,3.38-1.31,5.34-4.3,5.9a32.9,32.9,0,0,1-8.41.38c-4.81-.36-9.59-1.1-14.48-1.69,0-.32-.23-.79-.1-.9q8.17-7,16.39-14c.35-.29.69-.59,1.05-.87,4.47-3.42,5.24-3.23,7.36,1.72Z"/><path class="cls-1" d="M477.15,79.1l4.73,2.36c-3.41,2.71-7.52-.1-11.88.29-.62-.86-1.66-2.78-3.7,0L465.09,79,460,82.64c.44-3.16.77-5.53,1.12-8-2.93.3-1.29,3.29-2.28,5.07l-1.8-.44c-.32,1.1-.64,2.22-1.06,3.69-4.42-5.43-5.12-5.59-11.77-3.23a21.93,21.93,0,0,1-2.93.58c.58-3.44,2.23-5.53,5.31-6.49A58.82,58.82,0,0,1,479.27,73c2.61.67,5,2.19,7.46,3.44.43.22.52,1.08.77,1.64-1.44.56-2.92,1.64-4.32,1.55-1.86-.11-3.66-1.13-5.49-1.76Z"/><path class="cls-1" d="M438.16,83.34c-1.91.92-2.65,1.77-2.53,4.51.16,3.88-1.69,7.84-2.72,11.91L416.75,92.3l3.56-3.1-5-.92,3.09-4.4-.76-.83-5.92,4.72-4.32-.29.05,0-3.49.87-.51-.76a20.87,20.87,0,0,1,3.22-2.06c6.25-2.59,12.47-5.25,18.83-7.55a68.37,68.37,0,0,1,10.79-2.69c1.25-.23,2.68.44,4,.7l.37,1.17-3.84,3.39,1.24,2.87Zm-15.82,8.19.39.73c1.92-.53,4.19-2,5.67-1.42,4.4,1.71,2-2,2.7-3.07s.73-2.28,1.07-3.44A21.68,21.68,0,0,0,428.1,84a37.56,37.56,0,0,0-5.72,1.21,18.55,18.55,0,0,0-3,1.48l6,1.11Z"/><path class="cls-1" d="M116.55,533.46a36.77,36.77,0,0,1,1.51-5.68c3-6.69,7.94-11.8,13.33-16.54a5.67,5.67,0,0,1,2.38-1.29c6.31-1.38,11.37-4.91,16.09-9.09a5.9,5.9,0,0,1,1.4-.62c1.49,2.44,2.48,4.77-.14,6.9-1.26,1-1.72,4.57-4.79,1.22-.5,2.48-.89,4.43-1.38,6.94-1.24-1.3-2-2-2.34-2.46a73.45,73.45,0,0,0-5.14,5.78,63.32,63.32,0,0,0-3.61,6.3c-4.89-3.15-3-6.4-.22-9.66-4.18,2-5.39,5-3.88,8.33a5.79,5.79,0,0,1,.19,1.84c-.72.06-1.64.44-2.13.14-2.47-1.58-3.24.29-4.06,1.91a19.31,19.31,0,0,0-1.11,3.21C121.48,534.68,121.49,534.68,116.55,533.46Z"/><path class="cls-1" d="M387.21,110.76l-1.8-2.56a8.22,8.22,0,0,1,1.61,0c2,.51,3.91,1.06,6.1,1.66-.24.82-.43,1.49-.75,2.61l5.05-.78.59.81c-.76.61-1.45,1.6-2.29,1.76-3.77.73-7.57,1.39-11.39,1.75-4.45.41-8.94.65-13.42.65a84.65,84.65,0,0,1-9-.92l2.32-3L356.19,109l-1.13,1.27c-1.35-1.27-2.4-3-3.74-3.3s-2.78,1.16-5.23,2.34c.87-1.61,1.37-2.59,1.92-3.53s1.11-1.74,2-3.15c-.14,0,.87-.1,1.16.33,2.15,3.09,5,3.23,8.28,2.42,1.52-.38,3.52-1.11,3.15,2.12l4.59-1.73c0,1.89-.06,3.38,0,4.86.06,1.08.3,2.15.46,3.22l1.31-.29a8.39,8.39,0,0,1-.51-2.8,5.6,5.6,0,0,1,1.48-3c.37-.34,2,.08,2.53.65,1.51,1.57,2.92,1.47,4.89.91,1.56-.45,3.43.09,5.14.33C383.85,109.85,385.15,110.27,387.21,110.76Z"/><path class="cls-1" d="M233.91,422.51h-6.29c.22,1.34.73,2.63.52,3.78s-1.15,2-1.78,3a15.25,15.25,0,0,1-1.4-2.76,13.79,13.79,0,0,1-.21-3h-.87a21.78,21.78,0,0,1-.29,2.43c-.4,1.8-1.11,2.77-3.31,1.91-2.5-1-5.53-.66-6.47-4.3-.22-.86-2.64-1.15-4.31-1l3.93,2.23-.42,1.44-10.4-1.16.1-.85L198.88,426l-.66-.59,1.89-3.91-6.45,4-1.06-.76c.82-1.35,1.34-3.14,2.53-3.93a24,24,0,0,1,7.17-3.3c3.15-.8,6.61-1.38,8.85,2.39-.24-.55-.48-1.1-1.08-2.5,3.29.2,6.33-.07,9.08.69,2.57.71,4.84,2.52,7.64,3.16l-2.47-2c3.12-1,8.29.81,9.54,3.26Z"/><path class="cls-1" d="M156.94,462.67c1.44-1.61,3-1.77,4.63-.52l-3.12,3.39.89.81,5.09-4.65c2.21,2.67,2,3.05-4,7.31l2.41,1.2c-4.62,3.23.09,7-.72,10.75l4.17-2.19c.94,2.15,1.43,3.77-1.59,4.3a12,12,0,0,0-2.87,1.25l-4.45-1.51c.67,1.87,1.13,3.17,1.75,4.92l7.73-3.69a17.74,17.74,0,0,1-1.74,3c-.7.71-1.66,1.18-2.2,2.36l3.53-.47c-1.54,2.62-3.18,4.66-6.21,1.63.66,3,1.2,5.42,1.95,8.8l-4.08-3.1.37,2.43-1,.41c-.8-1.69-1.59-3.39-2.65-5.66l2.69.57c-.57-2.19-1.13-4.33-1.68-6.47-2.66-3.14-2.54-4.92,1-7.37a4.92,4.92,0,0,0,1.75-3.16l-4.56,2.1-.47-.45,2.71-4-2.75-1.54c3.51-2.28.53-4.75.75-7.08Z"/><path class="cls-1" d="M161.55,349c.29.12.75.16.87.38,3.19,6.3,9.08,6.25,14.9,6.38,7.15.17,7.15.18,7.6,7.48,0,.45.06.91.11,1.36.68,6-.78,7.34-6.83,6.71-2.66-.28-5.35-.3-8.42-.46-.15-3.06-.44-6.71-.48-10.36,0-2.41-.49-4.05-3.27-4.61-3.41-.7-3.55-4.12-5.35-6.19Zm18.34,9.39-1.49-.23-.29,5.94,1.21.09Z"/><path class="cls-1" d="M164.63,447c-.17-1.67-.32-3-.44-4.36,0-.2.13-.41.33-1a7.5,7.5,0,0,1,2.23,1.22c2.64,3,6.07,3.64,9.83,3.61,7.32-.06,14.64,0,22,0l.08,1.31c-1.86,0-3.73,0-5.59,0-2.48-.07-3.45.89-3.06,3.51.42,2.9.38,5.86.63,8.79.2,2.42-1,3.36-3.22,3.16-1.12-.1-2.22-.42-3.34-.53-6.12-.59-6.15-.61-6.64-6.69-.61-7.48-.61-7.49-8.16-8.6C167.81,447.17,166.35,447.11,164.63,447Zm21.59,2.53c-3.21.66-4.07,4.59-1.45,8.58C185.32,454.82,185.76,452.2,186.22,449.49Z"/><path class="cls-1" d="M220.15,662.4l-7.34,3.86-.6-.71,6.67-6.28c-.37-.38-1-1.07-1.75-1.85l2.12-3.13,1,.75.35,4,.82.19c.54-1.19,1.09-2.38,1.64-3.56l.86.1v38.74h-6.42c-.91-1.77-.31-2.73,2.41-3.13a4.38,4.38,0,0,0,3-2.71c.38-1.7,1-4.22-1.48-4.44V671.36l-4.69,4.1-.81-.16,1.75-6.24-4,1.05c1.33-2.82,1.33-2.82,7.7-2.5a13.25,13.25,0,0,1-.91-2.07A26.21,26.21,0,0,1,220.15,662.4Z"/><path class="cls-1" d="M168.28,466.66c6.19-.72,11.83-1.82,17.49-1.89,5-.07,10,.87,15,1.68a3.9,3.9,0,0,1,2.66,2.55c.11,1.93-1.46,2.37-3.35,2.28-8.71-.4-17.44-.67-26.16-1C171.86,470.2,169.6,470.42,168.28,466.66Z"/><path class="cls-1" d="M219.57,636.19c-6-3.93-6-3.93-5.35-6.16l5.21,1.73.75-.75c-3-1.85-3-4.13-1.18-6.35.71-.84,2.07-1.12,3.14-1.66.5,1,1.41,2,1.45,3.06.29,6.89.78,13.81.33,20.66-.16,2.31-2.84,4.48-4.48,6.62-.16.21-1.6-.11-1.67-.38a6.37,6.37,0,0,1-.27-3.48c.28-.78,1.59-1.19,2.42-1.74l-2.61-3-2.59.77-.45-.57,4.29-3.15-4,.33Z"/><path class="cls-1" d="M168.13,440.06c6.27-.7,11.86-1.75,17.48-1.83,5-.08,9.95.9,14.92,1.45,1.63.18,3.38.46,3.08,2.71s-1.83,2.36-3.79,2.27c-8.56-.42-17.14-.66-25.71-1C172,443.62,169.77,443.8,168.13,440.06Z"/><path class="cls-1" d="M151.87,122.81c.18,2.83.31,5.19.48,7.56.27,3.75.52,7.5.87,11.24.42,4.43.95,8.8-2.7,12.39a3.11,3.11,0,0,0-.57,2.88c1.44,2.34.29,3-2.15,3.54-.1-1.82-.56-3.54-.19-5.06.62-2.53-.87-4.06-2.46-4.89-1-.53-2.87.53-4.63.95.12-.43.1-1.73.72-2.25,2.82-2.36,2.2-5.46,2.16-8.46,0-1.48,0-3-.09-4.42a4.48,4.48,0,0,1,3.18-4.93c1.88-.73,3.9-1.85,3.62-4.94l-4.81,2.31C145.85,125.22,148.15,123.92,151.87,122.81ZM150,132.4l-1.21-.71c-1.07,1.46-2.78,2.81-3.06,4.41a50.11,50.11,0,0,0-.36,9.81c.07,2.67,1.62,4,4.63,3.81Z"/><path class="cls-1" d="M176.16,178.81c-.1-.9-.15-1.81-.32-2.7-.58-3,.41-3.61,3.5-3.21,2.67.35,5.58-.45,8.27-1.15,2.49-.64,3.45,0,3.37,2.51-.06,1.82-.13,3.63-.08,5.44,0,2.3.48,4.66-3.12,4.62-.57,0-1.16,1.49-1.76,2.31l-8.38-3.76a5.18,5.18,0,0,1-.36.55C176.91,181.88,176.53,180.35,176.16,178.81Z"/><path class="cls-1" d="M210.72,318.32a25,25,0,0,0-4-.63q-24-.07-47.92,0c-4.38,0-4.59.22-4.6,4.62,0,4.71,0,9.42,0,14.13l-.84,0V317.85c-1.95-.09-3.17-.19-4.39-.19q-30.59,0-61.17,0a33.66,33.66,0,0,0-4.32.58L80.71,317h68c4.64,0,4.78-.15,4.79-4.79V240.52h.68v5.83q0,33,0,66c0,4.38.22,4.58,4.62,4.6,3.07,0,6.13,0,9.19,0,4.88,0,9.89.69,14.59-.21,4.88-.93,9.43.7,14.17.3s9.75-.1,14.63-.1C211.19,317.42,211,317.87,210.72,318.32Z"/><path class="cls-1" d="M329.47,530.41c-.06,4.13-2.17,6.47-5.72,6.51-1.92,0-3.85-.09-5.76,0-2.46.1-4.58-.21-6.36-2.33-.92-1.08-2.74-1.4-4.14-2.08s-2.65-1.33-4-2c.09-.47.17-1,.25-1.42,4.62,0,9.26-.24,13.86.08,2.75.2,5.42,1.39,8.17,1.87C326.87,531.21,328.06,530.67,329.47,530.41Z"/><path class="cls-1" d="M165.45,350c3.74-.77,7.45-1.71,11.22-2.21,1.26-.16,2.67.8,4.25,1.32.21-.16,1.12-1.43,1.86-1.34,3.9.5,7.76,1.29,11.61,2.15a2.13,2.13,0,0,1,.84,1.88,2.86,2.86,0,0,1-1.83,1.61,32.48,32.48,0,0,1-5.75.24c-5.87-.19-11.74-.38-17.59-.78-1.68-.11-3.31-.94-4.95-1.44Z"/><path class="cls-1" d="M188,145.24l1-2.93-2.23.33c-.1-4.39,3.59-4.6,6.29-5.83l0-1-4.24-.65,4.2-6.88,3.75,8a4.36,4.36,0,0,0,1.68.08c3.66-.7,4.49,2.27,5.75,4.49.23.4-.81,1.52-1.26,2.3a7.66,7.66,0,0,1-2.24-1.42c-.41-.52-.28-1.47-.38-2.26l-4,1.42,2.76.69.15,1.24Z"/><path class="cls-1" d="M278.57,559.49c-2,0-4.07,0-6.1,0-1.83,0-3.4-.67-3.06-2.64a4.17,4.17,0,0,1,2.52-2.74c4-1.07,8.17-1.77,12.28-2.55,2.45-.46,3.92.38,4.08,3.1.14,2.49,0,4.66-3.28,4.64h-6.44Z"/><path class="cls-1" d="M329,522.65l-8.92.53-8.43.49.06,1.05h17.16c-.16,1.18-.3,2.23-.49,3.6-1,0-2,.08-2.94,0-5.28-.52-10.57-1-15.83-1.7-1.21-.17-2.3-1.23-3.44-1.89,1.07-1.25,2.09-3.54,3.23-3.6,6.49-.35,13-.17,19.53-.17Z"/><path class="cls-1" d="M311.87,509.48c8.36-.69,25.23,6.54,27.59,12.84-2.71-.58-4.83-1-6.94-1.51-.74-.18-1.46-.91-2.13-.84-4.53.5-7.15-2.55-10.21-5.05A89.42,89.42,0,0,0,311.87,509.48Z"/><path class="cls-1" d="M240.37,416.28c2.36-6.23,18.91-13.2,27.55-12.62a9.8,9.8,0,0,1-2.31,1.18c-4.54.69-6.56,5-10.1,7a31.58,31.58,0,0,1-5.25,1.93c-1.35.47-2.68,1.05-4.07,1.39C244.28,415.64,242.32,415.92,240.37,416.28Z"/><path class="cls-1" d="M404.91,318.45a24.65,24.65,0,0,0-4.28-.76q-84.7,0-169.42,0l1.35-1.35a29.19,29.19,0,0,0,4.32.62q78.27,0,156.54,0h12.07Z"/><path class="cls-1" d="M135.35,403.72c-2.83,2.18-5.81,4.78-9.1,6.9-2.18,1.42-4.79,2.19-7.23,3.18a40,40,0,0,1-5.07,1.76,41.6,41.6,0,0,1-5,.62C111.09,410.24,129.41,402.44,135.35,403.72Z"/><path class="cls-1" d="M120.36,422.36l-.52-3.34H137.5c-2.78-2.71-6-1.78-8.86-1.9s-5.94,0-8.91,0l-.06-1.28a23.4,23.4,0,0,1,3.75-.66c4.65-.1,9.31-.22,14,0a6.41,6.41,0,0,1,4,1.85,1.86,1.86,0,0,1-1.2,3.3C133.61,421.1,127,421.69,120.36,422.36Z"/><path class="cls-1" d="M191.59,578.36a54.39,54.39,0,0,1-8.1-.5c-.7-.13-1.71-2.46-1.37-3.32.44-1.16,2-2.65,3.16-2.65,8.44,0,16.89.23,25.34.43.25,0,.5.37,1.46,1.11-2.58.29-4.49.64-6.42.69-4.73.13-9.47.08-14.2.23a6.1,6.1,0,0,0-3.19.94c-1.66,1.15-.88,1.76.71,1.9Z"/><path class="cls-1" d="M285.11,474.37l1.08,1.23c0,5.85.22,11.7,0,17.54-.55,16.49-1.26,33-1.92,49.45,0,.19-.2.38-1.06.54Q284.16,508.75,285.11,474.37Z"/><path class="cls-1" d="M191.68,332.9v3.26l-3.59,2.06c-1.66-4.23-.92-5.68,2.86-7.39,4-1.82,7.83-4.16,11.89-5.91,1.36-.58,3.21,0,4.83,0-1.22,1.42-2.21,3.23-3.73,4.17-2.83,1.76-6.13,2.75-8.92,4.54C193.21,334.79,192.56,334.73,191.68,332.9Z"/><path class="cls-1" d="M251.19,418.64h16c-5.25-2.85-11.23-.55-16.72-2.82a18.69,18.69,0,0,1,3.41-.67c4.87-.09,9.74-.18,14.6,0a6.66,6.66,0,0,1,3.9,1.59c1.67,1.47,1.08,3.6-1,3.63-6.72.08-13.45-.12-20.18-.22Z"/><path class="cls-1" d="M211.22,329.71c-.56-.75-1.91-1.77-2-2.9-.15-1.62.34-4.61,1-4.76,2.77-.58,5.12-3.43,7-3.27,3.62.31,4.78-1.45,6.2-4.34l2.66,3.71c-2.12.86-4,1.51-5.69,2.37-.57.29-1.32,1.25-1.21,1.72.64,2.71-1.57,3.54-3,4.72A34.68,34.68,0,0,1,211.22,329.71Z"/><path class="cls-1" d="M68.3,532.5a25.65,25.65,0,0,1-4.73-.32c-2.72-.79-4.48.12-6,2.41-.6.89-2.07,1.14-3,1.85-1.56,1.17-3.05,2.44-4.49,3.76-.47.43-.54,1.4-1,1.66-3.52,1.85-7.1,3.59-10.67,5.36l-.65-.92c1.24-1.14,2.44-2.32,3.73-3.4,4-3.42,8.17-6.76,12.19-10.21,1.89-1.61,11.21-3.25,13.4-2.12C67.44,530.77,67.61,531.41,68.3,532.5Z"/><path class="cls-1" d="M73.42,151.54c.13-.17.7-1.52,1.25-1.51a23.69,23.69,0,0,1,5.83,1c.22.06.08,1.7,0,2.6-.23,2-.44,3.93-.84,5.86-.35,1.67.57,4.27-2.59,4.21-2.78,0-3.2-1.88-3.2-4.19S73.61,154.72,73.42,151.54Z"/><path class="cls-1" d="M200.52,614.48c5.57-1,10.58-1.89,15.62-2.56.58-.08,1.92,1.33,1.91,2,0,1.29-.82,3.7-1.24,3.69-4.89-.11-9.77-.56-14.64-1C201.75,616.57,201.41,615.67,200.52,614.48Z"/><path class="cls-1" d="M153.61,178.78c.67,1,1.28,1.87,1.92,2.77s1.32,1.85,2.19,3.06c1.29-3.74,3.21-4,9.12-1l-11.42,2.83a6.75,6.75,0,0,1,0,2c-.31.87-.7,2.15-1.34,2.35a3.89,3.89,0,0,1-3.08-.54,3.08,3.08,0,0,1-.45-2.68C151.28,184.93,152.31,182.38,153.61,178.78Z"/><path class="cls-1" d="M344.52,107.22l-2.19-2.89-.87.52c1.41,2.39,2.83,4.77,4.5,7.58l-12-7.55a9.13,9.13,0,0,1,11.29-4.13c.57.24,1,1.68.89,2.47A19.22,19.22,0,0,1,344.52,107.22Z"/><path class="cls-1" d="M69.56,545.24v-3.4l-4.16,3.89-.67-.38,2-7.43L73,535.17,70.73,532c1.81,0,3.68-.53,4.53.17.69.57.57,2.81.07,4-1.37,3.29-3.13,6.42-4.74,9.61Z"/><path class="cls-1" d="M237.5,533c1.88-.26,3.74-.62,5.62-.75,3.71-.25,4.37-1,3.6-4.54-.18-.83-.5-1.64-.91-2.94a17.52,17.52,0,0,0-.95,1.74,10.83,10.83,0,0,0-.35,1.52l-.94.07c-.1-1.17-.71-3-.21-3.37a8.25,8.25,0,0,1,4.47-1.69c.54,0,1.34,1.88,1.74,3,.28.82,0,1.81.13,2.7,1.1,6.32.92,6.1-5.88,6-2.1,0-4.19-.45-6.28-.69Z"/><path class="cls-1" d="M276.7,674.49l5.35,1.83c.31,2.48.62,4.95.83,6.69l-7.41,3.81c-.44-1.58-1-3.48-1.71-6.1l4.05,1.86,1-3.6-5.43-3.5Z"/><path class="cls-1" d="M191.59,578.36,189,577.19c3-1.72,5.87-2.69,9.28-.51,1,.64,3.09-.5,4.69-.74,2-.3,4-.52,5.55-.72.1,2.08.16,3.41.26,5.44Z"/><path class="cls-1" d="M175.24,167.7c.75-1.22,1.24-3.12,2.23-3.44a71.26,71.26,0,0,1,11.69-2.7c1.68-.24,2.46,1.54,1.16,2.77a10.19,10.19,0,0,1-4.81,2.62A93,93,0,0,1,175.24,167.7Z"/><path class="cls-1" d="M334.27,373.67c-5.74-.63-10.87-1.15-16-1.82-.53-.07-1.4-1.14-1.31-1.56.17-.76.91-1.92,1.49-2,4.6-.44,9.25-1.54,13.82.83l-10.13.47v1.09a75.61,75.61,0,0,0,8-.07C332.11,370.44,333.37,370.81,334.27,373.67Z"/><path class="cls-1" d="M62.51,204.3l-.94,3.85.44.29,1.7-1.94.51,4.35-8.64.59-.46-.86c.57-.54,1.13-1.09,1.72-1.6s1.33-1.08,2.3-1.87c-4.36-1.18-5-.64-6.58,4.19v-7Z"/><path class="cls-1" d="M168.34,601.61l-2.7,2-2.55-1.8c1-3.35,2.93-2.93,4.26-2.23l2.37-3L171.6,598a20.59,20.59,0,0,0-.56,3.76c0,1.4,0,3.4.82,4.06,3.57,2.83.36,4.42-1,6.54-.92-2.41-1.83-4.81-2.75-7.21l-.77.25Z"/><path class="cls-1" d="M244.65,512c3.69-1.48,4.58-1,4.84,2.35.15,1.87.5,3.73.77,5.69H236.64l-.08-1.17c2.26-.32,4.54-.57,6.79-1a30.35,30.35,0,0,0,3.34-1c-.45-1.29-.88-2.59-1.36-3.87A6.16,6.16,0,0,0,244.65,512Z"/><path class="cls-1" d="M69.33,148c4.06,5.54,2,11.2,1.93,16.9l-.42,4.84-1.51,0Z"/><path class="cls-1" d="M314.81,95.53l1.67.87c-.05,1.15-.11,2.29-.19,3.81l6.57-3.28c1.41,3.82.08,5.52-3.49,5.15-.61-.06-1.27.55-1.95.74-2.26.65-4.55,1.24-6.82,1.86l-.32-1,3.26-1.8-.8-3.47.22-.2C315.59,98.71,314.35,96.54,314.81,95.53Z"/><path class="cls-1" d="M281.52,643.18a11.12,11.12,0,0,1-.93,2.82c-1.16,1.75-.65,3,.49,4.56a12.29,12.29,0,0,1,1.86,4.49c.18.79-.5,2.54-.81,2.54-1.13,0-2.77-.16-3.31-.91-1.16-1.62-1.77-3.65-2.89-6.17l3.48,1.07c-2.08-3.64-3.31-7,2.15-8.35Z"/><path class="cls-1" d="M15.59,543.35,0,552.53C1.2,546.4,9.17,541.84,15.59,543.35Z"/><path class="cls-1" d="M193.11,370.57c-3.19.35-4.64-1.33-5.22-3.81a21.64,21.64,0,0,1-.52-5.67c0-.72,1-2,1.6-2,.84,0,2.24.78,2.4,1.47C192.12,363.72,192.51,366.94,193.11,370.57Z"/><path class="cls-1" d="M173,657.06c-.26,3.59-3.22,1.67-5.28,2l-.56-.9,5.2-3.39c-2-2.62-7.13-1.54-7.76-6.24l13.8,6.41Z"/><path class="cls-1" d="M167.12,365.38c-.73,1.84-1.49,5.25-2.19,5.24-3.15-.05-1.62-3.25-2.34-5a11.78,11.78,0,0,1-.49-5c.06-.77,1-2.09,1.57-2.08a2.94,2.94,0,0,1,2.24,1.6,27.37,27.37,0,0,1,.69,5Z"/><path class="cls-1" d="M156.94,462.67,154.27,466c.14-.91.29-1.82.5-3.2l-2-2.24,1.14.08a31,31,0,0,1,1.23-4.42c.25-.59,1.48-1.36,1.86-1.19a58.66,58.66,0,0,1,5.32,3.11l1.51-3.48,1,.18c-.16,1.29,0,2.82-.62,3.8-.45.67-2.06.82-3.13.77C158.66,459.32,156.42,459.15,156.94,462.67Z"/><path class="cls-1" d="M173.28,650.88c-.07-1.49-.15-3-.24-4.94l-3,1.7-2.26-4.26a54.46,54.46,0,0,1,5.18-4c.78-.47,2.07-.08,2.31-.08-.28,4.16-.54,7.93-.8,11.69Z"/><path class="cls-1" d="M160.85,512.17l-3,1.82-1.11-2.82,7.31-2.84,4.32,3.78c-2,1.11-4.13,2.31-6.29,3.4-.4.2-1-.06-1.55-.11Z"/><path class="cls-1" d="M53,231.75a11.25,11.25,0,0,0,.05,2.6c.16.67.85,1.8,1.12,1.75a51.45,51.45,0,0,0,8.29-2c1.89-.71,3.51-2.15,5.74-3.58.23,4.22-3.27,3.61-4.7,5.16s-3.29,2.53-5.23,4c-1.22-.41-3.76-.55-5-1.89s-1-3.84-1.46-5.84Z"/><path class="cls-1" d="M25.87,544.13c-.95,2-1.78,3.78-2.39,5.09l-5.7-2c.14-4.52,1.9-6.64,6.76-6.73l-4.26,3.36Z"/><path class="cls-1" d="M278.51,694.59l-4.3-5.93,4.94,1.47-1-2.78,6.39-2.67-.45,4.23Z"/><path class="cls-1" d="M74.57,177.87a62.73,62.73,0,0,1-.74-6.74c0-.74.84-2.07,1.4-2.12,1.21-.13,3.13,0,3.59.75.66,1.08.42,2.81.32,4.24s-.4,2.77-2.5,2.21C76.25,176.11,75.6,177,74.57,177.87Z"/><path class="cls-1" d="M273.62,242H253.76C256.57,239.31,270,239.44,273.62,242Z"/><path class="cls-1" d="M171.27,614.88c-6.81,1.35-10-2-8.22-9l4.9,2.17-.25.86-3.72.26c1.55,1.13,2.69,1.94,3.79,2.79S169.93,613.77,171.27,614.88Z"/><path class="cls-1" d="M140.52,159.58a41,41,0,0,1,2.37-5.58c.23-.39,2.58-.18,2.65.1.59,2.24.86,4.57,1.31,7.37Z"/><path class="cls-1" d="M162.72,622.81c2.59-2.4,4.55-.79,6.3-.07.52.21.27,2.19.44,3.35s.5,2.15.59,3.23a8.53,8.53,0,0,1-.59,4.13C167.59,629.63,168.14,624.71,162.72,622.81Z"/><path class="cls-1" d="M189,684.77l2.25-3.53c.69,1.18,1.41,2.35,2.06,3.56s1,2.2,1.62,3.26,1.21,2.06,2,3.35c-2.66.52-4.1.2-4.85-2.47-.44-1.57-2-2.81-3.09-4.21Z"/><path class="cls-1" d="M78.94,177.92c0,1.81,0,3.06,0,4.31,0,1.48,0,3-.2,4.44-.07.67-.3,1.66-.75,1.87a2.29,2.29,0,0,1-2-.41C73.69,185.9,75,179.78,78.94,177.92Z"/><path class="cls-1" d="M176.16,178.81c.37,1.54.75,3.07,1.12,4.61-.65,3.7,1.86,3.72,4.69,3.44-1.66,1.55-3.8,2.63-4.07,4.07-.24,1.28,1.61,2.94,2.46,4.31-3.87.62-4.74-.23-4.49-4.25S176.08,182.87,176.16,178.81Z"/><path class="cls-1" d="M163.76,539.68l1.36-1-5-3.35c2.51-1.21,6.59.42,7.47,2.78,1.34,3.62,1.34,3.62,4.58,4.17-2,2-6.83.49-8.39-2.64Z"/><path class="cls-1" d="M167.54,560.25l-2.72,1.06-.66.9,2.92,1.45-.17.89-6.79,1.16C162.51,557.35,163,557,167.54,560.25Z"/><path class="cls-1" d="M174.92,563.5l18.21,2.44c-.08.59-.17,1.18-.25,1.76l-18.13-2.83Z"/><path class="cls-1" d="M203.08,538.19c-1.85-1.17-4.24-2-5.37-3.63-1-1.48-.63-3.91-.86-5.92l1.4-.37q2.59,4.47,5.18,8.93Z"/><path class="cls-1" d="M248.67,672.89c.63,3.19-1.57,5.1-6.23,5-.17-2-.33-4-.46-5.69Z"/><path class="cls-1" d="M164.78,532.66c-.49-1.24-.67-3.19-1.71-3.93s-2.88-.15-5.11-.15c.73-1.06,1-2.06,1.69-2.36,1.75-.82,7.7,1.51,9.12,3.29Z"/><path class="cls-1" d="M55.07,239.29c-.27,2.23-.43,3.53-.61,5-1.43-.27-3.35-.54-5.2-1.06a2.3,2.3,0,0,1-1.46-1.54A2.14,2.14,0,0,1,49,240C51.15,239.57,53.31,239.47,55.07,239.29Z"/><path class="cls-1" d="M63.07,215.44,64.69,217l.09-.85h5c-1.5,3.74-4.46,4.25-11.21,1.84Z"/><path class="cls-1" d="M187,679.33l1.76.63c-1.09,1.65-2.09,3.29.19,4.81l0,0c.15,1.09.31,2.19.52,3.68l-4.39-1.7-.6-7.38Z"/><path class="cls-1" d="M163.78,584.66l2.25,4.71c1.38.45,3.41.54,3.75,1.35.7,1.64.48,3.66.67,6-2.35-2.3-4.47-3.65-5.5-5.59s-.86-4.3-1.22-6.49Z"/><path class="cls-1" d="M266.75,250.39c-4.34,1.06-8.69.54-13-.21v-1.06h13Z"/><path class="cls-1" d="M301.8,514.84c5.12-.85,10.21,2.73,15.73.17.16.6.68,1.67.47,1.84a3.49,3.49,0,0,1-2.33.9c-4.66-.58-9.31-1.33-14-2Z"/><path class="cls-1" d="M227.52,308.34c2.06-.58,4.11-1.26,6.21-1.66.44-.08,1.6,1.14,1.52,1.31-.59,1.2-1.42,3.21-2.18,3.21-1.85,0-3.7-.93-5.55-1.48Z"/><path class="cls-1" d="M166.45,520.09l-1.94,1.37,2.43,3.34c-2.22,0-4,.49-5.07-.17-.72-.44-1.06-3.17-.48-3.72,1.14-1.07,3-1.33,4.62-1.92Z"/><path class="cls-1" d="M162,554.75l6-4.61c1,2.66.72,5-1.24,6.21-1.15.71-3.25-.12-4.91-.27Z"/><path class="cls-1" d="M240.4,680.17c2.92,0,4.63.46,4.44,3.74-.1,1.82,1,3.7,1.64,5.93C240.57,688.61,243.28,683,240.4,680.17Z"/><path class="cls-1" d="M110.47,185.66c5.77,2.84,5.77,2.84,4.86,5.61C110.22,190.3,109.52,189.49,110.47,185.66Z"/><path class="cls-1" d="M133.92,157.89,132,156.07c1.39-.84,2.71-2.11,4.19-2.36,1.07-.18,2.37,1,3.57,1.59Z"/><path class="cls-1" d="M231.27,486.67c-4.45,1.63-8.41-.2-9.85-4.55Z"/><path class="cls-1" d="M345.51,152.19l5.56-.49,3.31,5.64-4.52.33.51-.85a32,32,0,0,0-2.14-2.5c-.83-.8-1.79-1.45-2.69-2.17Z"/><path class="cls-1" d="M261.17,409.94c6.12,1.54,11.2-1.62,16.82-.72-5.07,2.3-10,2.43-14.91,2.35C262.43,411.56,261.81,410.51,261.17,409.94Z"/><path class="cls-1" d="M218.69,621.15c-1.26,2.85-5.25,2.9-2.73,6.72l-1.62-.23-1.23-4.1.88-.33-3.07-1.59.15-.85Z"/><path class="cls-1" d="M183.6,560.34c4.06,1.16,8.14,2.24,12.15,3.55.76.25,1.29,1.39,1.74,2.22.1.19-.84,1.2-.9,1.17-.77-.47-1.43-1.11-2.2-1.6a22.79,22.79,0,0,0-4.73-2.74,43.77,43.77,0,0,0-6.48-1.19Z"/><path class="cls-1" d="M159.4,500.4l5.5,4.53c-4.11.2-8.91-2.32-9.31-4.81Z"/><path class="cls-1" d="M196.16,130.38a40.89,40.89,0,0,1,5.5-1.68c.67-.11,2.21.88,2.18,1.31a20.13,20.13,0,0,1-1.39,5.54C201.56,132.07,199.44,130.38,196.16,130.38Z"/><path class="cls-1" d="M314.27,111.29c1,2.5-.63,5.84,3.87,6.06-2.21,1.32-3.67,2.78-5.09.48S311.61,113.42,314.27,111.29Z"/><path class="cls-1" d="M163.71,618.14a67.08,67.08,0,0,1,6.89-.83c.52,0,1.08,1.32,1.62,2a8,8,0,0,1-2.05.65c-2.11.08-4.23,0-6.35,0Z"/><path class="cls-1" d="M233.3,204.7c1.21-1.95,2-3.65,4.36-1.39.81.78,2.39.75,3.76,1.13C241.53,207,238.76,207.3,233.3,204.7Z"/><path class="cls-1" d="M168.31,672.26l3.31-4.86-2.76-2.91c3.26.4,3.53.7,5,5.23l-4.53,3Z"/><path class="cls-1" d="M306.55,518.68l-6.1,5.33.48-6.46Z"/><path class="cls-1" d="M163.9,548.06c1.35-7.08,4.37-1.53,6.65-1.11C168.81,549.31,166.56,549.12,163.9,548.06Z"/><path class="cls-1" d="M65.27,539.35l-12.45,3.9-.41-1.15,12.28-4.49Z"/><path class="cls-1" d="M109.13,176.34c-2.52.91-4.2,3.79-6.42.63a2.6,2.6,0,0,1-.21-2.36,2.56,2.56,0,0,1,2.29-.47A31.7,31.7,0,0,1,109.13,176.34Z"/><path class="cls-1" d="M438.12,83.38c1.22-.24,2.43-.55,3.67-.69a8,8,0,0,1,2,.26c-.18.58-.17,1.38-.56,1.69-1.77,1.4-3.65,2.66-5.91,4.26.34-2.17.61-3.87.87-5.56Z"/><path class="cls-1" d="M197.83,681.43a29.15,29.15,0,0,0,1.37-4.79,59.61,59.61,0,0,0,.06-6.6l-3.47.71c-.2-1.54-.39-3-.63-4.93l4,2.56c.22,3.88.51,7.77.57,11.65C199.71,680.49,198.49,681,197.83,681.43Z"/><path class="cls-1" d="M297.32,52l-.69,0a40.11,40.11,0,0,1,6-18.74C300.78,39.89,299.05,46,297.32,52Z"/><path class="cls-1" d="M202.62,482.61q.82,9.74,1.63,19.46l-1.14.08q-.65-9.73-1.3-19.48Z"/><path class="cls-1" d="M38.89,542.06l-2.76-5h6.11Z"/><path class="cls-1" d="M444,88.28c-1.57,3.28-4.86,4.24-8,5.85C436.12,91,436.26,90.86,444,88.28Z"/><path class="cls-1" d="M279.79,412.7c-.85,1.43-1.47,2.48-2.23,3.79l-3.88-2.64C275.43,411.53,277.18,410.93,279.79,412.7Z"/><path class="cls-1" d="M163.79,539.65l-1,.52v6.6c-2.34-1.41-3.4-6.22-1.86-7.37.57-.42,1.87.16,2.84.28Z"/><path class="cls-1" d="M166.86,585.39c2.66,0,4.82,0,7,.05.37,0,1.09.83,1,1-.29.65-.72,1.47-1.31,1.7a3.91,3.91,0,0,1-2.76.2C169.62,587.83,168.68,586.81,166.86,585.39Z"/><path class="cls-1" d="M268,120.77c-.51.69-1,1.38-1.55,2.06.25-2.1-1-2.58-2.77-3a17.88,17.88,0,0,1-6.22-2.62C260.66,119.23,265.52,116.5,268,120.77Z"/><path class="cls-1" d="M130.13,165.81c-.47-3.56-.89-6.68-1.3-9.81C131.4,158.05,131.86,163.39,130.13,165.81Z"/><path class="cls-1" d="M250.89,688.34c.7,1.06,1.8,2,2,3.19s-.46,2.39-.92,3.53c-.1.24-1.39.34-1.46.2a4.32,4.32,0,0,1-.42-2.08c.1-1.25.41-2.48.63-3.72Z"/><path class="cls-1" d="M317.52,126l-5.09-.57c.33-.86.77-2.49,1-2.46a29.85,29.85,0,0,1,4.48,1.17Z"/><path class="cls-1" d="M67.82,524.26l6.29-2.12.67,3.14-6.84.4Z"/><path class="cls-1" d="M303.33,562.36l7-4.74C310.65,561.35,308.26,563.09,303.33,562.36Z"/><path class="cls-1" d="M249.49,678.17l.4,7.3c-3-1.91-2.5-4.44-1.86-7Z"/><path class="cls-1" d="M173.87,675.61l2.74,4.3-4.42-.29.36-3.85Z"/><path class="cls-1" d="M212.22,651.89c0-1.37,0-2.22,0-3.07s0-1.71,0-2.56c.76.3,2,.41,2.2.94a5.17,5.17,0,0,1,.23,3.31C214.49,651.1,213.23,651.35,212.22,651.89Z"/><path class="cls-1" d="M213.61,678.25l7.21,2.35c-1.09.74-2.1,2-2.9,1.85A5.14,5.14,0,0,1,213.61,678.25Z"/><path class="cls-1" d="M163.05,425.84c1.82,3.15-2.11,4.24-2.11,7.14C159.31,429.18,160.08,426.89,163.05,425.84Z"/><path class="cls-1" d="M280.37,128.5l9.12-2.21.32,1.33-9.15,2.4C280.57,129.52,280.47,129,280.37,128.5Z"/><path class="cls-1" d="M185.07,197.53c3.21-1.16,5.05,1.19,7.17,2.82l-.3.84-7.24-2.62Z"/><path class="cls-1" d="M225.94,493.13c-.82,2.67-3.24,3.75-5.07,2.52-.32-.22-.71-.78-.63-1a1.88,1.88,0,0,1,1-1.09,13.77,13.77,0,0,1,2.33-.13C224.26,493.36,224.91,493.26,225.94,493.13Z"/><path class="cls-1" d="M214,490.16c2.73-3.61,5.68-1.82,8.24-1.83l-2.63.44-.59.56,2.25.41-.71,1Z"/><path class="cls-1" d="M339.25,98.14l-6.4,5.24C333.45,99.49,336.06,97.42,339.25,98.14Z"/><path class="cls-1" d="M76.41,520.67l8.37-2.61.31,1L77,522.35Z"/><path class="cls-1" d="M355.3,117c-.14-2.54-1-3.93-3.81-3.25-.66.15-1.6-.87-2.27-1.58C356,112,356.66,112.52,355.3,117Z"/><path class="cls-1" d="M164,592.63a21.87,21.87,0,0,1,2.27,3.11c.32.61.08,1.51.09,2.28-.8-.23-2.06-.22-2.31-.72a21.59,21.59,0,0,1-1.2-4.2Z"/><path class="cls-1" d="M216.09,687.7a24.34,24.34,0,0,1,4.21-.52c.29,0,.55,1.42.83,2.18l-4.82.33Z"/><path class="cls-1" d="M279,598.74q-.56,5.65-1.1,11.32L277,610l.75-11.37Z"/><path class="cls-1" d="M240.7,585.38c1.28-.26,2.75-1,3.79-.66s1.84,1.92,2.73,2.95l-1.53,1.39-1.94-4.62-1.35.95-1,6.14C241.17,589.48,240.94,587.43,240.7,585.38Z"/><path class="cls-1" d="M302.82,106a18,18,0,0,1-2.13-2.37,16.86,16.86,0,0,1-1-2.6c.6-.17,1.49-.67,1.74-.44a6.93,6.93,0,0,1,1.78,2.44C303.43,103.58,303.08,104.33,302.82,106Z"/><path class="cls-1" d="M250,200l5.22,3c-1.79,2.31-3.29,1.75-5.75-2.06Z"/><path class="cls-1" d="M351,148.88l-7.31-5.54.76-1,7.36,5.47Z"/><path class="cls-1" d="M152.55,390.72l-5.43,3.57-.55-.49,3.11-4.88Z"/><path class="cls-1" d="M168.52,667.11a17.2,17.2,0,0,1-1.49,2.22,9.12,9.12,0,0,1-1.77,1.26c-.29-.85-1-2.28-.81-2.46a21.62,21.62,0,0,1,3.66-1.94Z"/><path class="cls-1" d="M340.25,124.21,338,122.32c1.86-1.51,3.86-1.87,6.88-.61Z"/><path class="cls-1" d="M56.57,194.81l-3.8,4.89c-.42-2.91-.24-5.36,2.82-5.74Z"/><path class="cls-1" d="M152.87,395.3l2.83-5.89c.86,2.19,1.48,3.78,2,5.09l-3.65.86Z"/><path class="cls-1" d="M165.5,633.68l2,3.65c-.76.23-2.07.8-2.18.62a22.09,22.09,0,0,1-1.57-3.5Z"/><path class="cls-1" d="M285.48,438.05l4.61,3.54c-1.12.41-2.34,1.14-2.59.89a33.12,33.12,0,0,1-3-3.88Z"/><path class="cls-1" d="M234.11,426.41l6.95.78c-.07.52-.14,1-.2,1.56L234,427.61Z"/><path class="cls-1" d="M319.35,106.49l5.21-2.48c.05,3.19-.51,3.52-4.78,3.33Z"/><path class="cls-1" d="M214.67,652.65c.38,1.16.77,2.31,1.26,3.79l-4.43.6c.88-1.8,1.5-3.09,2.13-4.39Z"/><path class="cls-1" d="M328.47,99.65l4.77-3.51.88,1.12L329.58,101Z"/><path class="cls-1" d="M82.9,525.4l5.86-.7c-1.69,3.94-3.86,2-5.72,1.61Z"/><path class="cls-1" d="M242.58,575.05c.76,1.26,1.54,2.06,1.37,2.38a10.73,10.73,0,0,1-1.94,2.24c-.39-.58-1.17-1.22-1.09-1.72C241.05,577.14,241.75,576.43,242.58,575.05Z"/><path class="cls-1" d="M344.47,114.78c-1.16,4.06,2.07,3,3.63,3.81l-.27,1.06a22.63,22.63,0,0,1-4.85-1.3c-.42-.21-.06-2-.06-3.07Z"/><path class="cls-1" d="M267.4,232l-6.53-.4.06-1.31,6.52.31Z"/><path class="cls-1" d="M210.49,538.1c-.27,1.77-.53,3.53-.8,5.29l-1.78-.34,1.23-5.43Z"/><path class="cls-1" d="M57.46,138.65l1-3.53,2,.64-1.24,3.48Z"/><path class="cls-1" d="M297.27,375.58c-.18-3.6-.37-7.21-.55-10.82l1.08,0v10.87h-.53Z"/><path class="cls-1" d="M209.76,507.7q-1.38-2.62-2.77-5.25l1.53-.8,2.53,5.33Z"/><path class="cls-1" d="M148.79,162.57c1.29.68,2.58,1.35,3.81,2.13a10.93,10.93,0,0,1-.7,1.56l-3.83-2.43Z"/><path class="cls-1" d="M63.2,226.67c-2.16,1.17-3.31,1.79-4.47,2.4L58,228.6a11.32,11.32,0,0,1,2-3.09C60.3,225.21,61.64,226.08,63.2,226.67Z"/><path class="cls-1" d="M438.22,97.5c-1,1.17-2,2.36-3.06,3.46-.09.08-.84-.48-1.28-.74l3.2-3.81Z"/><path class="cls-1" d="M312.74,98.44,307,96c2.35-1.93,4.09-1.2,6,2.24Z"/><path class="cls-1" d="M245.11,201.57l4.56,3.09-1,1.39-4.28-3.36Z"/><path class="cls-1" d="M72.62,171.66l-.85,3.91c-.56-.21-1.62-.5-1.61-.63a36.8,36.8,0,0,1,.88-3.7Z"/><path class="cls-1" d="M119.67,198.83l-3.85,3.3-.75-4.4Z"/><path class="cls-1" d="M212.45,695.83c-.35-2.21-.57-3.66-.84-5.35C214.62,691.7,214.8,692.56,212.45,695.83Z"/><path class="cls-1" d="M129,203.66c1.95,2.85,3.79,4.76,4.65,7.05.67,1.8.13,4.06-.49,6C131.81,212.61,130.51,208.51,129,203.66Z"/><path class="cls-1" d="M303.74,250.8l9.49,2.62-.29,1.14L303.43,252Z"/><path class="cls-1" d="M279.37,343.37l-1.19-1.05h15.15l0,1.77Z"/><path class="cls-1" d="M297.67,344.12v11l-.65,0V344.09Z"/><path class="cls-1" d="M225,368.79c0,.21,0,.41,0,.61-3.54-2.16-4.1,1.72-6.62,2.73.55-1.39.78-3.64,1.71-4C221.51,367.65,223.37,368.51,225,368.79Z"/><path class="cls-1" d="M406.93,69.58c2.71-3,4-3.15,7.16-1.14l-6.87,2.08Z"/><path class="cls-1" d="M410.82,48.63q1.35,5.15,2.72,10.3l-.67.66q-1.72-5.07-3.44-10.13Z"/><path class="cls-1" d="M289.91,587.19l-3.28,5.09C284.78,589.46,284.78,589.46,289.91,587.19Z"/><path class="cls-1" d="M217.6,188.23l-5,0-8-1.09,0-.9c4.27-1.58,8.71-1.44,13.16-1.17l.33.88-1.9,1.54Z"/><path class="cls-1" d="M219.6,161.62H202.92c6-1.84,11.37-1.14,16.69-1.16C219.61,160.85,219.6,161.23,219.6,161.62Z"/><path class="cls-1" d="M218.18,197.21H203l-.09-.63,14.65-.77Z"/><path class="cls-1" d="M244.78,642.52c.76-1.74,1.51-3.49,2.41-5.55.32,1.75.67,3.62,1.12,6l-3.55-.53Z"/><path class="cls-1" d="M151.61,360.52q-.84-5.07-1.7-10.14l1-.19,1.91,10.15Z"/><path class="cls-1" d="M258.53,348.19c-2.45,4.28-4.46,8.19-8.28,11.42-2.35,2-5.77,4.18-6.8,8.12-.34,1.3-3.45,1.89-5.42,2.86,1.94,2,.88,3.73-1.47,5.43a46.3,46.3,0,0,0-7.27,6.18,12.39,12.39,0,0,0-2.68,5.66c-.72,3.46-2.81,3.62-5.8,3.16.09-1.09.16-2,.23-3l2,.67c.17-.33.41-.58.35-.7a6.31,6.31,0,0,1,.49-6.62c1-1.61.76-3.92,1.45-5.77,1.67-4.47,4.63-8,8.1-11.26,2.66-2.51,4.46-5.92,6.75-8.84.52-.65,2-1.48,2.24-1.27,2.88,2.4,5.36.1,8.94-.38l-7-1.15,5.83-6.49,3.47,3.09v-5c3.22-.29,5.82-.68,8.44-.71a6.38,6.38,0,0,1,3.55,1.52C263.38,346.78,262.27,350.37,258.53,348.19Z"/><path class="cls-1" d="M374.43,48.6c3.49,2.25,2,5.14,2,7.71C374.74,54.2,372.61,52.23,374.43,48.6Z"/><path class="cls-1" d="M762.71,477.14l1.35,2.54c-2.68-.21-5.14.18-7-.7s-2.82-3-4.19-4.56l-.57.41c.84,1.48,1.69,3,2.63,4.59l-7.4,1.57.13.93H751c4.71.06,9.42.11,14.13.18,2.42,0,4.86.3,7.26.1,1.31-.11,2.55-1,4-1.56,5.49,2.19,4.1,7.34,4.17,12-2.83.56-3.43.14-4.06-3l1.19-.24,1.71-.34-3-4.43c-2.14,2.52-4.41,4.72-7.5,1.54l-1.69,2.05c-2.44-3.29-2.45-3.32-6.3-1.16a3.31,3.31,0,0,1-4.37-.35c-2-1.78-4.56-1.86-7.13-1.46a18,18,0,0,1-2.67,0c-1.08,2.47-3.16,3.06-5.88,2.46a5.84,5.84,0,0,0-2.9.17c-4.47,1.39-4.79,1.23-5.61-4.23l-2.27,4.16-2.35-4.13c0,3.91-.88,4.5-3.84,3.92-5-1-10.17-1.43-15-2.9-8.43-2.55-16.64-5.8-25-8.58-3.39-1.12-6.94-1.76-10.41-2.67-7.61-2-15.2-4.08-22.82-6-6.76-1.75-13.58-3.29-20.34-5.09-3.51-.93-6.91-2.29-10.4-3.31-2.14-.62-4.39-.84-6.53-1.48a16.05,16.05,0,0,1-3.19-1.84l.38-.8,19.33-3.28c.26,0,.6,0,.79-.1.79-.57,1.53-1.2,2.29-1.81a22.94,22.94,0,0,0-2.87-1.05,5.37,5.37,0,0,0-1.78.24C625,419.81,645.83,386,679.75,377l-6,4.43c-3.91,2.86-7.84,5.69-11.7,8.63-.45.34-.45,1.26-.66,1.91.61-.11,1.44,0,1.81-.36,8.42-8.06,19-11.89,29.77-15.39s21.89-3.42,33.15-2.59c4.62.34,8.24,3.2,12.71,3.28,1.65,0,3.3,0,5.07,0a8.17,8.17,0,0,0,8.39,3.52l-3.68-2.24.19-.77a6.82,6.82,0,0,1,2.12,0,80.24,80.24,0,0,1,29.88,18.09A66.82,66.82,0,0,1,785.4,401c-1,.58-2.47,1-2.56,1.66a4.06,4.06,0,0,0,1.29,2.95c4.82,4.64,6.88,10.84,9.4,16.71,2.06,4.82,3.36,10,4.93,15,.46,1.45.91,2.69,3.09,2.32-.62-2.72-1.26-5.25-1.75-7.81-.32-1.63-.4-3.3-.58-4.95H800c6.45,19.89,4.22,38.78-6.51,57.15a10.58,10.58,0,0,0-1-2.89c-.38-.46-1.33-.47-2-.69.11.62,0,1.55.38,1.8,1.89,1.28,1.71,2.94,1.1,4.72-.43,1.24-.66,2.72-2.66,2.19-1.78-.46-2.67-1.29-1.57-3.19-3-.91-2.43,2.14-4,3.19L781.81,485a22.53,22.53,0,0,0,3.61-.8c.7-.28,1.59-.94,1.71-1.57s-.48-1.57-.78-2.36a8.82,8.82,0,0,1-2,1.06,6,6,0,0,1-3,.23,4.89,4.89,0,0,1-2.92-6.34c.86-2.26,2-4.42,2.82-6.67,1.44-3.83,1-4.45-3.36-5.51-1.1,4.48-2.2,9-3.42,13.89l-2.83-1.94c-.27,1.62-.49,2.85-.74,4.33-2.8.64-5.24-1-7.62-2.77l-1.33-.85-.79.86ZM760,475l.63.47.79.24-.37-.79-.56-.39-.68-.15C759.88,474.55,760,474.76,760,475Zm12.65-8.26c.62-.81,1.6-1.53,1.8-2.42.81-3.76,1.39-7.57,2.07-11.35.36-2.05-.18-4.32,1.82-6,.43-.35.21-1.66.07-2.49a51.47,51.47,0,0,1-1.08-5.1,8.37,8.37,0,0,0-3.45-6.68A5.25,5.25,0,0,0,771,432c-.34,0-1.1,1.34-.92,1.66a4.38,4.38,0,0,0,2.06,2c1.63.55,1.9,1.37,1.33,2.83-.25.65-.14,1.49-.47,2.08-1.4,2.44-1.24,4.38-.14,7.26,1.45,3.8,2.31,8.26.8,12.62a38.1,38.1,0,0,0-1.12,6.06l-.11.52ZM664.27,435.37a25.06,25.06,0,0,1-.34,3.69c-.92,3.9-2,7.76-2.94,11.66-.42,1.81.4,2.73,2.34,2.49,1.68-.21,3.37-.42,5.07-.57s1.92-.91,1.9-2.51a16.28,16.28,0,0,1,1.05-5.9c1-2.54,2.51-4.88,3.76-7.33.51-1,.91-2,1.35-3h.78a6.94,6.94,0,0,1,.47,2.45c-.43,2.09-1.14,4.12-1.68,6.19-.75,2.92-1.55,5.84-2.12,8.79-.44,2.26.89,3.35,3,3.44s4,0,6.1,0c-.12-.42-.09-1.15-.41-1.38-2.13-1.54-1.85-3.75-1.71-5.87.1-1.59.59-3.15.76-4.75.34-3.18,1.14-6.46.7-9.55-.4-2.85-2.16-5.52-3.51-8.71-.88,1.51-2.17,3-2.69,4.76-1.11,3.68-4.18,5.84-7.94,5.17-1.47-.26-3.06-.81-4,1-.06-.89-.1-1.79-.21-2.68-.37-3,.79-5,3.73-5.88a3.57,3.57,0,0,1,2.49.73c.59.39.88,1.23,1.31,1.88l4-2.24-2.14-1.55c-1.67-1.19-3.41-2.33-1.46-4.69a1.39,1.39,0,0,0-.06-1.37,1.5,1.5,0,0,0-1.42-.25,11.14,11.14,0,0,0-1.8,1.89c-1.24,1.44-2.46,2.89-3.88,4.58-.62-1-.85-1.44-1.17-1.84-.63-.76-1.3-1.49-2-2.23-.64.64-1.27,1.3-1.93,1.92-.43.4-.91.75-1.8,1.48.16-1.46.24-2.22.41-3.89-1.44.75-2.75,1-3.18,1.74-2.28,3.94-2.62,9.05-7.16,11.61a1.27,1.27,0,0,0-.46.64c-1.47,4-3,8-4.35,12a33.63,33.63,0,0,0-.87,5.06c1.9-.23,3.8-.45,5.7-.71.22,0,.4-.28.11-.06.65-5.89-.06-11.84,7.87-13.11l-.34-.73-4.1-.36c1.24-2.66,2.41-5.29,3.71-7.85A4.46,4.46,0,0,1,657,427.9c1.56-.93,3-.74,2.94,1.37a27.41,27.41,0,0,1-.89,7.07c-1.27,4.36-3,8.58-4.34,12.92a3.4,3.4,0,0,0,.67,2.33,7.13,7.13,0,0,0,3.54-.89c.66-.46.79-1.74,1.1-2.67Q662.15,441.7,664.27,435.37Zm35-.54,1,.49L696,442c-.56-.49-1-1.22-1.71-1.46-1.23-.43-3.5-1.11-3.7-.75-1.54,2.71-2.76,1.86-4.38-.25a82.79,82.79,0,0,0-.26,9.76,2.22,2.22,0,0,0,.9,1.57c1.46.95,1.6,2.1,1.24,3.7-.23,1-.15,2.75.43,3.1,1.12.67,2.7.59,4.24.85-.52-1.76-1.17-2.94-1.1-4.07,0-.83,1-1.61,1.63-2.4.37.84.81,1.66,1.1,2.53.13.39-.2,1,0,1.31a30.7,30.7,0,0,0,1.73,2.69c.64-.72,1.64-1.33,1.86-2.16.73-2.77,1.15-5.61,1.78-8.4.14-.58.64-1.44,1.09-1.53a3.46,3.46,0,0,1,3.75,4.18c-.33,1.34-.74,2.66-1.13,4.07,5,.14,5.14.05,6.34-4.18.6-2.1,1.27-4.18,1.91-6.27l.8.2c-.56,2.77-1.15,5.53-1.69,8.31s.38,4.09,3.25,4.2c1.88.07,3.76,0,5.77,0-.41-2.59-1.27-5.11,1.86-7.54.2,3.11.44,5.64.51,8.17,0,1.61-.32,3.24-.16,4.82.07.59,1,1.31,1.75,1.52.34.11,1.22-.73,1.47-1.31,1.24-3,2.22-6,3.57-8.93.87-1.85,1.17-3.29-.64-4.73a2.25,2.25,0,0,1-.56-2c1.33-3.49,2.87-6.91,4.23-10.39a10.09,10.09,0,0,0,.3-2.61c-2.56,3.75-4.57-.89-6.91-.11-.48,2.14-.41,4.71-3,5.81-.16.07-.21.48-.24.74-.31,2.1-1.6,1.84-3,1.18s-2.55-1.68-3.94-2.06a3.58,3.58,0,0,1-2.71-5c.46-1.39,2.27-2.7,3.77-3.3,1.84-.73,2.33,1.24,2.79,2.52a27.21,27.21,0,0,1,.77,4.17l1.45-3.07,2.15.69c.82-1.93.28-3-1.58-3.9-2.35-1.11-2.71-3.78-1.13-5.83.35-.46.64-1.54.4-1.76a2.34,2.34,0,0,0-1.91-.5c-.59.16-1.08.83-1.53,1.36-1.08,1.29-2.05,2.68-3.18,3.93s-1.88.58-2.27-.7c-.15-.48.14-1.11,0-1.58-.28-.74-.65-1.8-1.22-2s-1.56.38-2.23.81a7.71,7.71,0,0,0-1.43,1.67c-.26-1.49-.44-2.53-.62-3.58-2.28,3.79-2.28,3.79-7.73,2.43-.81-2.45.78-3.31,2.62-4.16.6-.28,1.47-1.35,1.33-1.65a5.45,5.45,0,0,0-2-2.31c-.35-.21-1.53.34-1.89.86-.62.89-.76,2.1-1.35,3s-1.35,2.05-2.27,2.34c-2.22.72-3.88-.16-5.08-2.32a13.75,13.75,0,0,0-3.47-3.94c-1.07-.85-2.68-1.56-3.76.12-.43.67-.67,2.3-.41,2.45a11.79,11.79,0,0,0,3.35.73,17.86,17.86,0,0,1-1.27,3.51,13.78,13.78,0,0,1-2.17,2.45c.76,1.66,1.32,3,2,4.23.38.74.79,1.86,1.37,2a2.84,2.84,0,0,0,2.26-1,10.4,10.4,0,0,0,1.51-3.08,5.37,5.37,0,0,1,6.52-3.36c3,.92.84,3,.87,4.5,0,2-.2,4-.32,6l.85.13Zm50.11-6.62c-2.59,1.58-5,3.16-7.56,4.59-1.27.72-1.44,1.28-1.18,2.89a20.42,20.42,0,0,1-.67,7.29c-.13.58-1.74.77-2.55,1.31a3.34,3.34,0,0,0-1,1.43c-.32.73-.52,1.51-.8,2.26-1.58,4.35-3.29,8.65-4.7,13.06-.72,2.27.45,3.39,2.8,3.26,2.19-.13,3.3-1.07,3.69-3.4.77-4.56,1.27-9.34,3.08-13.5,1.21-2.76,2.85-5.34,3.74-8.33a3.28,3.28,0,0,1,2.74-1.49,3.43,3.43,0,0,1,2.31,2.1c.9,3.56,1.78,7.24-1.39,10.32a3.31,3.31,0,0,0-.61,1.46c-.8,2.84-1.61,5.67-2.36,8.52a12.43,12.43,0,0,0-.78,4.17,3.72,3.72,0,0,0,2,2.4c.44.19,1.92-.82,2.2-1.56,1.23-3.26,2.16-6.62,3.27-9.92a14.48,14.48,0,0,1,1.23-2.29l.63.25a22.52,22.52,0,0,1-.35,3.4q-1.32,5.2-2.86,10.35c-.41,1.33-.37,2.44,1.13,2.72,2.39.45,4.82.65,6.92.91.35-2.65.11-5,1-6.76,2.14-4.29,4.8-8.32,7.35-12.6.13.3.62.89.56,1.42a36.6,36.6,0,0,1-1.05,6.28c-1.19,4-2.71,7.95-3.9,12-.24.83.14,2.55.66,2.76A39.63,39.63,0,0,0,768.6,475c.43-3.48.77-6.24,1.12-9,.62-4.93,2.23-10,1.58-14.77-.58-4.23-3.19-8.22-2.22-13-2.33,3.51-4.64,6.95-6,10.73-.82,2.27-1.6,1.94-3,1.2-2.1-1.12-4.14-2.35-6-3.43-.36-1.71-.72-3.42-1.12-5.35.24-.17.76-.49,1.24-.88s.85-.88,1.35-1.23c2.26-1.6,3.48-1.2,4.31,1.5.43,1.39.64,2.84,1,4.63a22.4,22.4,0,0,1,2.7-3.1c1.69-1.34,1.28-2.17-.29-3.22-2.08-1.39-3.69-3.11-3.16-6a1.91,1.91,0,0,0-.74-1.68,2.37,2.37,0,0,0-1.83.56,7,7,0,0,0-1.18,1.73c-3-2.53-6.7-1.76-9.06,1.94C743.52,431.73,750.16,431.43,749.33,428.21Zm40.79,45.57c0-2.74-.15-5.41,0-8,.28-3.93-1.42-7.84.08-11.82.26-.68-.84-2.21-1.69-2.89-1.79-1.42-2.62-2.9-2.2-5.29.22-1.25-.5-2.66-.8-4l.78,1.65-3.41,1.76c.39.69,1.94,2.26,1.61,3.06-1.58,3.85-1.14,7.75-1,11.67a2.75,2.75,0,0,0,.25.73l2.58-.18a21.49,21.49,0,0,1-.72,2.24c-1,2.08-2.13,4.08-2.94,6.21a73.86,73.86,0,0,0-2.4,7.84,2.56,2.56,0,0,0,.67,2c.22.23,1.28-.1,1.78-.44a4,4,0,0,0,1.1-1.49c.68-1.26,1-3,2-3.67C786.65,472.62,788.32,473.45,790.12,473.78ZM636.49,431.93a14.53,14.53,0,0,0,.75,9.84c.31.65,0,2.29-.48,2.48-3.84,1.63-3.58,4.78-3.11,7.95.11.75,1,1.38,1.52,2.07.57-.56,1.35-1,1.66-1.7,1.31-2.83,2.52-5.71,3.67-8.62.25-.65.42-1.85.07-2.15-2.3-2-1.6-4-.5-6.26.66-1.35,1-2.85,1.58-4.27.83-2.16,1.4-4.56,4.43-4.7.36,0,.71-.5,1-.79,1.52-1.37,3.06-2.7,4.5-4.14.43-.43.91-1.26.76-1.72a2.17,2.17,0,0,0-1.54-1.18,3.16,3.16,0,0,0-3.91,2.74,13.77,13.77,0,0,0-.15,2l-.52-.58-5.68,3c-.52-1.63-1.06-3.35-1.6-5-1.71,1.17-2.26,5.49-.87,6.9,2.4,2.43,2.4,3.35,0,5.95Zm98.62-5.14c-.36,1.24-.57,2.16-.9,3-.58,1.53-1,3.17,1,3.81s2.93-.82,3.48-2.48c1-3-.22-5.07-4.33-7.3a2.76,2.76,0,0,0-2.63.34c-.55.75-.38,2-.51,3.07.85,0,1.7-.06,2.55-.13A8.62,8.62,0,0,0,735.11,426.79ZM715.3,385.72l.07.79a20.27,20.27,0,0,0,2.92.77c2.75.32,5.52.49,8.27.79,1.78.19,3.54.58,5.31.69a5.4,5.4,0,0,0,2-.72,20.76,20.76,0,0,0-1.54-1.57,2,2,0,0,0-1-.29c-4.53-.47-9-1-13.59-1.33C716.93,384.79,716.1,385.41,715.3,385.72Zm-7.25.52c-4.06-1.07-18.84,3.3-21,6.25.42.17.85.54,1.17.46q9.39-2.54,18.75-5.15a1.6,1.6,0,0,0,.84-.6A2.7,2.7,0,0,0,708.05,386.24ZM771.41,394l0,.82c4,5.87,8,11.73,12.09,17.64,1.86-1.62.91-2.88.09-4-3.21-4.5-6.44-9-9.78-13.39C773.32,394.41,772.21,394.3,771.41,394Zm-139.35,30.2,1.48,2.44a8.3,8.3,0,0,0,1.64-2c1.1-2.72,2-5.52,3-8.26a26.71,26.71,0,0,0,1.44-3.44c.15-.68-.42-1.5-.66-2.26-.55.45-1.32.79-1.62,1.36-.86,1.66-1.54,3.42-2.29,5.13Zm32.59,36.3,5.26-1.17c-5-4.3-8.69-4.48-10.76-.61l4.93-1.8Zm107.43-46.55c0-3.2-5.2-9.29-8.71-10.45C765.67,407.69,769,410.17,772.08,413.92Zm12.51-.82-.84.54c.79,2.69,1.54,5.39,2.4,8.06.12.38.78.58,1.19.87.28-.49.89-1.05.79-1.45a51.7,51.7,0,0,0-1.83-6.38C786.06,414.07,785.18,413.64,784.59,413.1Zm-96,54.7,8.14-6.51C692.59,460.4,689.82,462.61,688.56,467.8Zm41.05,6.43-1,.9-.74,4.13,3.12,2.2,2-3.15-1.29.79C731,477.48,730.32,475.85,729.61,474.23Zm7-5.7c-.8-.33-1.3-.74-1.58-.62-2.16.89-3.28.19-4-2-.18-.57-1.58-.76-2.41-1.12.41,1.14,1.54,1.8,1.51,2.4-.15,2.89,2,3.1,3.77,3.86Zm-81.36-67.07,5.74-8.15C656.89,394.85,654.37,398.3,655.22,401.46Zm41.56,62.81c2.49-.44,5.74.94,7-2.66C700.37,459.84,698.82,462.7,696.78,464.27Zm45.13-75.13c1,3.05,3.92,4.56,7.5,3.85Zm20.66-.81c-.1-3-2.34-4.6-5.88-4.38Zm-22.45,79.36-.84-.45-2.37,6.19C739,473.15,739,473.15,740.12,467.69Zm29.11-74.35,1-1.16-4.5-4-1,1.11Zm-66.88,83.79c-4.17-1.58-4.17-1.58-4.8-.64l4.58,2.85C702.16,479.05,702.26,478.08,702.35,477.13Zm36.7-90.21-1.24.8-1.79,1.1a15,15,0,0,0,2.68,1.74c.38.15,1.58-.65,1.55-.77A23.85,23.85,0,0,0,739.05,386.92Zm-95.76,74.17.13-1.08-6.31-1.34-.23,1.08Zm66.38,12c.26,1.83.46,3.31.69,4.94C712.81,476.36,712.6,474.9,709.67,473.1Zm41.52-77.8,3.6,2.47c.18-.28.53-.79.51-.8-1.06-.8-2.14-1.56-3.23-2.31A10,10,0,0,0,751.19,395.3Zm-9.48,53.4-.32,1.39,4.06.84.28-1.38ZM721,466.06l-.81.8,3.48,3.9.93-.88Z"/><path class="cls-1" d="M782.87,539.46,781.24,538c5.46-2.34,12-1.54,15.94-7.17-4.58,1.49-6.76-2.69-10.1-4-1.32-.52-2-2.8-2.88-4.27a5,5,0,0,1,6.4,1.17c1.37,1.59,2.65,2.7,5,2,.89-.26,2.07.33,3.07.68,1.8.62,3.57,1.34,5.17,1.95-.7,1.56-1.52,3.44-2.39,5.3-1.72,3.65-3.92,6.83-8.06,8.08a3.21,3.21,0,0,0-1,.5C787.23,546.2,782,550,776.86,554a15.68,15.68,0,0,1-8.3,3.21c-.55,0-1.07.61-1.64.86q-6.6,2.91-13.22,5.8a10.68,10.68,0,0,1-1.77.26c2.88-1.71,4-3.55,3.26-6.15-2.71-.66-2.71-.66-2.5,3.4-.54-.35-1.12-.53-1.34-.92-1-1.72-2.16-1.32-3.63-.62a36.23,36.23,0,0,1-4.75,1.58l0,0-1.46-4.25c1.54-1.09,3.57-2.36,5.38-3.89a15.58,15.58,0,0,0,2.29-3.2c.1-.14.06-.41.18-.5,2.86-2.31,3.51-6.81,7.72-7.8.35-.08.92-.18,1-.39.75-2.77,2.66-3.91,5.37-4.31A15.13,15.13,0,0,0,767,535.7a13,13,0,0,0,3.31-1.83c-5.1,0-10.31-.78-13.73,4.41-1,1.44-2.67,2.39-4,3.56l-.74-.83,4.87-4.53a13.09,13.09,0,0,0,2.28-2.24c.21-.32-.39-1.69-.77-1.76-7.65-1.4-15.32-2.74-23-4-5.78-.91-5.79-.82-11.76-4.61-1.81,1.8-5.55,1-9.88-2l.16-.69a17.36,17.36,0,0,0,2.38.77,14,14,0,0,0,2.74.16c3.54-.08,7.24-.89,10.59-.14,5.5,1.21,10.74,3.53,16.16,5.16,1.58.47,3.68,2,4.95-.71l0,0,1.91-1.6c1.65-.29,2.77-.55,3.9-.67a10.92,10.92,0,0,1,2.74,0c.18,0,.45,1.28.28,1.4a17.64,17.64,0,0,1-2.71,1.32c-.26,1-.81,2.22,1.68,1.94,1.23-.14,2.55.52,3.83.78,2.31.47,4.65.83,6.93,1.4,1,.26,2.46.67,2.88,1.46,1.37,2.57,2.36,5.35,3.77,8.72l7.13-1.23,2,2,1.61-2.55Zm-15.34,3.38a11.17,11.17,0,0,1,.44,1.81c0,1.76.24,3.88,2.18,4,1.36.08,2.81-1.43,4.23-2.21,1-.55,2-1,3.16-1.67l-.77-2.86a35.94,35.94,0,0,0-6.12-1c-2.07,0-5.28-.06-6,1.11-1.51,2.5-3.55,3.64-5.9,4.72-.07,0,0,.32,0,.66C762.46,547.7,764.46,544.53,767.53,542.84Zm-9.92,11.86a13.8,13.8,0,0,0,3.36-1.1,14.83,14.83,0,0,0,3.39-3,8.77,8.77,0,0,0,1-2.69,14.62,14.62,0,0,0-2.55,1c-1.7,1.08-3.18,2.65-5,3.37-2,.77-4.27.74-6.39,1.22-.58.13-1,.82-1.52,1.25l.16.77c.89,0,2,.32,2.63-.07,1.92-1.13,2.95-.52,3.69,1.34a4.76,4.76,0,0,0,.92,1.63c.62.63,1.42,1.57,2.1,1.53.89-.05,1.74-.92,2.83-1.57C760.39,556.88,757.65,557.66,757.61,554.7Zm13.63-3.84c-2.3,1-4.22,1.88-6.1,2.79-1.13.54-2.44,1.12-1,2.49l7.61-3.44Zm-22.71,6.69-.67-1.68-3.68,1.3.68,1.88Z"/><path class="cls-1" d="M666.06,490.41c2.47,0,2.5-2,3.31-3.61a20.26,20.26,0,0,1-2.29-.7c-1.29-.61-2-1.5-1-2.92.79-1.21,1.7-2.37,3.17-1a18.62,18.62,0,0,1,3.63,4.12c.91,1.6,1.83,2.32,3.48,1.82a15.05,15.05,0,0,0,.2-4.08,11.33,11.33,0,0,0-1.9-3.46c-.81-1.22-1.74-2.36-2.61-3.54l.65-.69c2.32.78,4.67,1.47,7,2.34,4.35,1.67,8.66,3.47,13,5.15a8.23,8.23,0,0,0,2.13.26,10.22,10.22,0,0,1,6.93,3.1,3.45,3.45,0,0,0,3,.87c2.45-1,3.95-.28,5,1.93a9.49,9.49,0,0,0,1,1.2c3-4.1,6.63-.89,9.95-.89.54,0,1.08,1.94,1.59,2.94.59-.15,1.72-.8,2.13-.5,4.65,3.51,10.24,2,15.34,3.05a2.18,2.18,0,0,1,.47.21c-.91,1.73-5,2.83-7.34,2.14-2.49-.75-5-1.32-8-2.08,1.59,1.72,4,3.08.72,5.1l-1.75-1.53a10.06,10.06,0,0,1-9.08,2.06c-1.17-.28-2.6.53-4.32.94-1.61-1.7-1.31-3.65,1.86-7.86l-3-1.67-5.14,4.13,3.88.49c.15,2-2.87,3.85-5.59,3.64s-4.59-1.11-5.26-4c-.13-.56-.86-1.08-1.44-1.38-.18-.09-1.1.58-1.1.91a6.57,6.57,0,0,0,.56,2.16c0,.13.28.2.43.3,3.36,2.51,3.37,3.29.18,5.49-1.68-1.57-3.42-3-4.94-4.72-.38-.42,0-1.48-.05-2.24a8.37,8.37,0,0,0-.8-3.23c.38,4.34-2.5,3.27-5,3.59l4.58,3.32c-3,2.56-2.75,2.41-4.59-.69-.74-1.26-2.9-1.65-4.37-2.52-1-.56-1.81-1.26-2.71-1.9s-1.5-1.13-2.25-1.69l-.58.58,2.63,5.12c-3.54-.18-4.83-1.66-5.45-4.73-.25-1.29-1.72-2.59-3-3.32-.56-.33-1.93.71-3.53,1.38l-3.65-3,4-.5Zm5.3.89,10.82,4.21c2,.8,4.06,1.34,6-.62-2.23-2.08-4.48-3.62-7.66-3.44a8.9,8.9,0,0,1-3.85-.87A4.94,4.94,0,0,0,671.36,491.3Zm12.86-8.8-.89,5.42,5.4,4.79,2.86-5.12-4.94,1.2C688.42,485.45,686.13,484.28,684.22,482.5Zm-6-2.48,1.77,4C681.89,481,681.55,480.22,678.18,480Z"/><path class="cls-1" d="M850.38,511.85a23.48,23.48,0,0,1-4.56-2.12,7.59,7.59,0,0,0-6.85-1.34c-.57-3-2.11-3.59-5.07-2.31-.78.34-2.54.12-2.85-.41-1.81-3.17-4.49-2.63-7.32-1.59l4.63.49a18.91,18.91,0,0,1-.61,2.59c-.67,1.71-1.11,3.55.86,4.43,1.07.47,2.6-.13,4.06-.26v1.73c-2.37,1.76-4.41,3.2-6.33,4.78a1.77,1.77,0,0,0,.1,1.59,5.3,5.3,0,0,0,2.49.38c.37,0,.6-.93,1-1.12,1.44-.63,3.39-.73,4.3-1.78.71-.8.14-2.71.14-4.13l1.08-.22c.42,1.38,1.37,2.9,1.08,4.12-.25,1.06-1.87,1.83-3,2.62a3.36,3.36,0,0,1-1.54.42c-1.74.22-2.61,1-2.15,2.88s1.92,1.84,3.39,1.47c2.28-.58,4.59-.74,6.38-2.86,1.58-1.86,3.58-1.48,6.8.67a32.22,32.22,0,0,0-3.52.23,11.37,11.37,0,0,0-3.23.95,1.45,1.45,0,0,0,.72,2.78c2,0,3.07.69,3.47,2.82.33,1.76,3.74,2.16,6.43.83l-4.9-3.73,0-.93c1.34-.26,2.69-.48,4-.8a9.06,9.06,0,0,0,2.35-.86,24.46,24.46,0,0,1,3.51-2c-2.63,2.92-3.26,6.39-3.52,10,0,.42-.67,1-1.14,1.16a55.37,55.37,0,0,1-5.68,1.4,10.82,10.82,0,0,1-3.45.13c-4.23-.62-8.44-1.34-12.64-2.08a5,5,0,0,1-2-.92c-.12-.09.19-1.24.48-1.33a2.72,2.72,0,0,1,1.93.12,7.69,7.69,0,0,0,6.34.75c1.72-.51,3.79.15,5.7.29l.22-.76a19.47,19.47,0,0,0-2.4-.83c-5.29-1.12-10.61-2.1-15.87-3.36a7.16,7.16,0,0,1-3.18-2.3c-1-1.13-1.62-1.53-3-.31a4.63,4.63,0,0,1-7.6-1.93,3.21,3.21,0,0,1,.29-2.21c.12-.24,1.2-.13,1.78,0a40,40,0,0,0,4.88,1.38c1,.13,2-.53,3.25-.9a9.41,9.41,0,0,1-.72-1.83,5.3,5.3,0,0,1,.11-1.42,6.33,6.33,0,0,1,1.53.64c.33.24.43.78.71,1.12,1.16,1.35,2.13,1.58,2.9-.4a8.6,8.6,0,0,1,1.31-1.92c.5-.65,1.6-1.7,1.49-1.83a31.14,31.14,0,0,0-3-3.14c-.5.64-1.4,1.29-1.39,1.91a7.85,7.85,0,0,0,1.12,2.65l-.42.63c-.9-.54-1.77-1.15-2.71-1.6a8.29,8.29,0,0,0-2.66-.86c-.19,0-.53,1.11-1.15,1.66.24-1.22.48-2.44.72-3.64,1.27,0,2.48.36,3.25-.07a25.86,25.86,0,0,0,4.3-3.39c.06,0-.72-1.52-1.08-1.5a34.12,34.12,0,0,0-4.57.72c-.06-.13-.34-.41-.35-.71-.14-3.26-.94-3.93-4.22-3.42-1.58.25-3.16.58-4.84.89.73,3.94,1.46,7.89,2.14,11.85,0,.14-.51.38-.84.61a19.15,19.15,0,0,0-2-3.25c-1.86-2-3.43-4-.87-6.58.16-.16,0-.65-.08-1.37-2.64.34-5.74,2.5-7.48-1-.6-1.22-.39-2.84-.51-3.89,2.47-.12,4.28-.32,6.08-.26,3.5.12,7,.31,10.48.62,4.73.43,9.45,1,14.18,1.51,5.79.62,11,3.08,16,5.75,1.35.71,2.09,2.59,3.11,3.93ZM826.29,524.4c.54-.42,1.34-.78,1.61-1.37.14-.31-.56-1.18-1.06-1.57a5.93,5.93,0,0,0-2.56-1.39,7.88,7.88,0,0,0-2.79.76c.41.8.62,1.89,1.27,2.34A14.32,14.32,0,0,0,826.29,524.4Z"/><path class="cls-1" d="M606,472.06l-.45-6.1-3.58-.91-.32.69c.59.38,1.17.78,1.77,1.16,1.37.87,2,1.87,1.13,3.58-.34.65,0,1.64,0,2.47,0,.66,0,1.31,0,2.31l-6.11-4.72-1.2,3.7-.75-.15-1.68-3.2-2.76,4.63-1.87-3c-3,3.1-8.92,3.51-13.09.91,1.59-.18,3.14,0,4.4-.58s2.11-1.73,3.23-2.72c-2-1.26-6.61.28-8.9,2.5-1.22-.65-2.4-1.18-3.47-1.88-.54-.36-1.19-1-1.2-1.57a2.09,2.09,0,0,1,1.16-1.55c2.64-1,5.88-.7,7.62-3.67.2-.34,1-.38,1.5-.48,3.66-.73,7.39-1.16,10.95-2.21,5.24-1.55,10.12-1.35,15.07,2,0-3.35,1.64-2.78,3.5-1.95a52.18,52.18,0,0,0,5.12,2,23.17,23.17,0,0,0,3.43.7c4.72.82,7.21,3.93,8.55,8.46l-13.64-3.11c-2.88.84-2.56,3.61-3.09,5.92-4.2-.09-1.81-2.95-2.16-4.91L606,472Zm-9.42-3.52-9.87.95.08,1.05c2.51,0,5,.14,7.51-.07.92-.08,1.78-1,2.66-1.51l.26-.52Zm15.08,2.29.59-.78L610,468.59l-.46.67Z"/><path class="cls-1" d="M634.61,488a12.29,12.29,0,0,0-.46-2.53c-.95-2.4-1.13-4.63,1.19-6.77l-4-2.06,0,.06-.84-3.27,3.4.88-1.3-3.71-1.79,1.57-2.49-3.88c1.08-2,3.28-3,6.09-2,5.83,2.1,12,2.94,17.65,6,5.44,2.93,11.61,4.51,17.5,6.56,1.87.65,3.19,1.49,3.3,3.78l-7.45-3-.92,3.15L655.14,475c-1.16,2.49-.06,3.26,1.22,4.06,1.8,1.13,2.61,2.61,1.66,4.14l-6.63-.54-.26.67L658,488l-.31.67c-5.8-1.21-9.43,3-13.79,5.36a6.08,6.08,0,0,1-3.46.84c-.52,1-1,1.95-1.95,3.68-1.23-2.91-2.23-5.11-3.09-7.37a25,25,0,0,1-.77-3.24Zm6.17-1.07,1.41-1.6,8.64,2.54,1-1.25a17.16,17.16,0,0,1-3.34-2.18,11,11,0,0,1-1.52-3,17,17,0,0,1,3.15-.76,17.23,17.23,0,0,1,3.29.45c-.45-2.44-1.58-3.26-4-2.86a13.57,13.57,0,0,1-4.83-.5c-1.68-.35-3.27-1.11-5-1.43-2.1-.4-2.69,1.15-2.11,2.61s1.92,2.59,3.1,4.08l-2.45,1.86ZM642,470.8l-.43.88c1.78,3,5.43,2.27,8,3.7l.46-.95Z"/><path class="cls-1" d="M692,511.15l11.8-2.89c.35,2.28,2.67,2.26,4.28,1.74s2.85-2.23,4.22-3.4c3.81,2.11,3.86,2.32,1.63,8.71,1.34-.38,2.52-.39,3.1-1s.13-1.64.06-2.49-.26-1.84-.34-2.77-.13-2.06-.22-3.7c1,.22,2,.4,2.92.67,1.45.39,2.88.84,4.33,1.26.05.83.1,1.67.2,3.31.85-1.08,1.65-1.66,1.59-2.12s-.89-1-1.38-1.53l-3.26-1.82c2.3-1.75,4.55-1.76,6.62-.31a3.31,3.31,0,0,0,2.3.65c.95-.25,1.69-1.21,2.64-1.56a15.5,15.5,0,0,1,3.12-.5c.26-3.18,1.38-3.86,3.78-2.25l-1.79,2.22c5,3,5,3.14,3.48,6.25-1.36-1.17-2.57-2.84-4.16-3.36-1.12-.38-2.76.8-4.33,1.34.3.82.66,1.31.6,1.75a9,9,0,0,1-.75,1.94,10.61,10.61,0,0,1-1.92-1.42,12.47,12.47,0,0,1-1.22-2.18c-.22.82-.44,1.64-.65,2.46a4.29,4.29,0,0,0-.11.59c-2.81.8-5.34,1.47-7.83,2.31-.3.1-.32,1.06-.49,1.67l2.87.93L722,517.88l-.3-.66c-2,.35-4,.71-6,1.08-.71.12-1.49.54-2.1.36-3.54-1-7.27.27-10.51-.26-7-1.14-14.36-.64-21.22-3-.59-.2-1.38-.24-1.72-.66a6.35,6.35,0,0,1-.73-2.07c.67-.18,1.45-.68,2-.49,1.93.68,3.78,1.7,5.85.2l-3-2,10.67-2.88.42.82-3.75,2.34-.33.52Zm19.66.38c-2.33.23-4.11.33-5.85.64a1.66,1.66,0,0,0-.87,1.38,1.68,1.68,0,0,0,1.27,1C708.17,514.5,710.14,514.31,711.67,511.53Zm-14.2,4.59.92.45c.65-1.38,1.31-2.75,1.9-4.15,0,0-.84-.4-1.28-.62-.55,1.36-1.11,2.72-1.65,4.09C697.33,515.94,697.43,516,697.47,516.12Z"/><path class="cls-1" d="M744.22,511.41l4.14-8.43-1.2-.64c-.45.78-.85,1.59-1.35,2.33s-1.24,1.65-1.86,2.47a26.33,26.33,0,0,0-.45-2.8,6.31,6.31,0,0,0-1-2.54c-.48-.56-1.44-.69-2.19-1l.72-1.52,5-1.07c0-2.45,2-1.51,3.4-.75a50.84,50.84,0,0,1,7,4.79c.72.58.84,1.91,1.23,2.89l-1.22.82-1-2.35-.65-.22c-.51,3.45-2.56,4.58-5.54,4.83-.83.07-1.48,1.61-2.32,2.35a22,22,0,0,1-2.45,1.67Z"/><path class="cls-1" d="M781.64,500.1l5.4,2.34c-5.18.92-9.65-.4-11.21-3-2.78,2.22-5.75,1.29-6.17-2.39-.36-3.06-1.67-3.8-4.32-3.49-.21,0-.44-.23-.66-.36.84-2.23,2.21-2.59,4.2-1.2,2.82,2,5.63,4,8.51,5.84a1.62,1.62,0,0,0,1.57-.17A1.7,1.7,0,0,0,779,496c-.27-.46-1-.66-1.49-1l.26-.83,3.65,1.22c1.81-1.79,3.38-3.52,5.17-5,.47-.39,1.62-.12,2.39.09.37.1.92,1,.82,1.11-.33.54-.88,1.24-1.41,1.3C784.13,493.47,782.38,496.28,781.64,500.1Z"/><path class="cls-1" d="M743,561.46c-.36,2-1.29,3.28-3.67,3.12-.82-.06-1.7.65-3,1.2l3.43,2.54H732l5.36-8.37,1.67,2.47,4-.93Z"/><path class="cls-1" d="M779.81,521.77c-.13-.6-.26-1.16-.39-1.77l-2.33.69c.22-1.14.37-2,.56-3l2.73,1.27v-7.82C785.05,514.31,784.54,519.45,779.81,521.77Z"/><path class="cls-1" d="M631.37,476.71l0-.06c.27,1.57.59,3.14.78,4.72a1.93,1.93,0,0,1-.55,1.32c-.12.12-1.06-.19-1.08-.36-.4-3.36-3.75-3.2-5.62-4.77-.33-.28-.71-.51-1.17-.83l1.31-2.19Z"/><path class="cls-1" d="M777.51,530.21l-1.59-.82.25-.78c2.55.06,2.27-4.64,5.41-3,1.25.65,1.77,2.68,2.63,4.09l-.59.79-6.12-.28Z"/><path class="cls-1" d="M823.82,534.26A20.06,20.06,0,0,1,810,530.8l6.93.55Z"/><path class="cls-1" d="M767.77,501.78l8.18,4.91C770.66,508.49,768,507,767.77,501.78Z"/><path class="cls-1" d="M793.44,499.6c.52-.31.88-.67,1.28-.72,1.19-.16,2.39-.19,3.59-.26a26.92,26.92,0,0,1-1,3c-.59,1.25-1.34,2.42-2,3.62l-.77,0C794.17,503.46,793.83,501.67,793.44,499.6Z"/><path class="cls-1" d="M759.38,500.34c-2,.75-4.28-.72-8.79-5.21,2.66-1.19,3-1.09,4.82,1C756.62,497.5,757.93,498.8,759.38,500.34Z"/><path class="cls-1" d="M738.15,515.16l-6.06-.86-.6,4.89-.76.08c-.07-1.58-.68-3.47,0-4.65.56-1,2.55-1.27,4-1.73,1.24-.4,2.55-.6,4-.93-.13.82-.32,2-.52,3.24Z"/><path class="cls-1" d="M755.75,493.57c3.7-1.23,6.4.83,7.52,5.68Z"/><path class="cls-1" d="M745.74,550c-2.87,3.7-6.23,6.7-11.24,7.39l10.76-8Z"/><path class="cls-1" d="M744.36,515.69c1.68,1.42,3.49,2.64,2,4.94-1.06,1.63-5.51,1.57-7.23,0a22.2,22.2,0,0,0,4.77-.56C746.49,519.12,744.21,517.39,744.36,515.69Z"/><path class="cls-1" d="M803,519.62a21.71,21.71,0,0,1,2.44,2c1,1.13,1.92,2.41,2.9,3.6.67.81,1.41,1.58,2.46,2.75A10.08,10.08,0,0,1,803,519.62Z"/><path class="cls-1" d="M632.2,492.3c1.24,1.09.32,4.49,3.81,3.14.1,1.15.19,2.09.33,3.64-1.45-.3-3.25-.19-3.56-.82a29.49,29.49,0,0,1-1.59-5.76Z"/><path class="cls-1" d="M750.55,526.44l-6.78-1.32.14-1.1h6.87c-.08.81-.17,1.62-.25,2.44Z"/><path class="cls-1" d="M634.61,488l0-.06c-1.17,1.82-3.89,1.41-5.44-.83-.19-.28-.34-.6-.51-.9,0-.23,0-.45,0-.67,1.58-1,3-1.54,4,.79C633,487.05,633.94,487.46,634.61,488Z"/><path class="cls-1" d="M759.65,503.46a15.85,15.85,0,0,1,3.66-.35,3,3,0,0,1,2.13,1.43c.26.68-.35,1.68-.59,2.54a10.7,10.7,0,0,1-2.12-.95C761.7,505.38,760.8,504.48,759.65,503.46Z"/><path class="cls-1" d="M628.65,485.55c0,.22,0,.44,0,.67-4.27-.79-5-1.62-4.52-5.33C626.62,481.52,627.85,483.32,628.65,485.55Z"/><path class="cls-1" d="M679.34,501.61c3.38,0,5.67,1.77,7.3,4.57l-.51.78-7.18-4.7Z"/><path class="cls-1" d="M800,426.83h-.81l-4.59-11.31.65,0Q797.65,421.17,800,426.83Z"/><path class="cls-1" d="M789.08,530.41l-1.27,4.2c-1.33-1.4-3.35-2.76-3.15-3.44C785.3,529.1,787.19,530.08,789.08,530.41Z"/><path class="cls-1" d="M752.29,514.82c2.52,2.34,2.87,3.87.86,6.59L751.5,515Z"/><path class="cls-1" d="M850.32,511.89c1.74,1.38,3.88,2.48,3.81,5l-4.91-2.7,1.15-2.29Z"/><path class="cls-1" d="M778.45,533.94h5.83C781.66,536.88,780.81,536.87,778.45,533.94Z"/><path class="cls-1" d="M738.11,515.2l2.75.65.29.82L735.94,520l0,0,2.16-4.84Z"/><path class="cls-1" d="M845.45,513.85c.36,1.38.71,2.77,1.07,4.16a8.34,8.34,0,0,1-1.64.2c-.42-1.31-.69-2.66-1-4Z"/><path class="cls-1" d="M773.73,526.65l-7.68-1.1.12-.72C768.75,525,771.53,524.07,773.73,526.65Z"/><path class="cls-1" d="M666.06,490.41h.05L662,487.91c.62-.46,1.29-1.37,1.9-1.33s1.45.86,1.84,1.54A6.48,6.48,0,0,1,666.06,490.41Z"/><path class="cls-1" d="M777.5,530.2c-.23,2.52-.86,2.86-4.08,2.14.39-2.59,2.5-1.85,4.09-2.13Z"/><path class="cls-1" d="M788.62,498.39a25.13,25.13,0,0,1,3.07-1.12c.2,0,.62.78.94,1.2l-3.52,1.31Z"/><path class="cls-1" d="M777,513.58c-3.86.92-4.51.49-4.09-2.42Z"/><path class="cls-1" d="M704.77,503.93l3.3-2.94C708.57,504.34,708.28,504.58,704.77,503.93Z"/><path class="cls-1" d="M782.87,539.46h3.65L784.91,542l-2-2A4.51,4.51,0,0,1,782.87,539.46Z"/><path class="cls-1" d="M792.49,411.82,789.61,408l.75-.49q1.23,2,2.45,3.93C792.71,411.6,792.6,411.71,792.49,411.82Z"/><path class="cls-1" d="M792.81,411.48l1.53,2.16-.57.38-1.28-2.2C792.6,411.71,792.71,411.6,792.81,411.48Z"/><path class="cls-1" d="M795.28,415.5l-.65,0-.48-1,.36-.25Z"/><path class="cls-1" d="M735.94,520l-.15.3s0-.13,0-.15A1.39,1.39,0,0,1,736,520Z"/><path class="cls-1" d="M606,472l0,.24c0-.06,0-.13.07-.2Z"/><path class="cls-1" d="M772.49,466.51a39.27,39.27,0,0,1,1.13-6.06c1.51-4.36.65-8.82-.8-12.62-1.1-2.88-1.26-4.82.14-7.26.33-.59.22-1.43.47-2.08.57-1.46.3-2.28-1.33-2.83a4.38,4.38,0,0,1-2.06-2c-.18-.32.58-1.66.92-1.66a5.25,5.25,0,0,1,2.93.74,8.37,8.37,0,0,1,3.45,6.68,51.47,51.47,0,0,0,1.08,5.1c.14.83.36,2.14-.07,2.49-2,1.64-1.46,3.91-1.82,6-.68,3.78-1.26,7.59-2.07,11.35-.2.89-1.18,1.61-1.8,2.42Z"/><path class="cls-1" d="M715.3,385.72c.8-.31,1.63-.93,2.41-.87,4.54.35,9.06.86,13.59,1.33a2,2,0,0,1,1,.29,20.76,20.76,0,0,1,1.54,1.57,5.4,5.4,0,0,1-2,.72c-1.77-.11-3.53-.5-5.31-.69-2.75-.3-5.52-.47-8.27-.79a20.27,20.27,0,0,1-2.92-.77Z"/><path class="cls-1" d="M708.05,386.24a2.7,2.7,0,0,1-.21,1,1.6,1.6,0,0,1-.84.6q-9.36,2.61-18.75,5.15c-.32.08-.75-.29-1.17-.46C689.21,389.54,704,385.17,708.05,386.24Z"/><path class="cls-1" d="M771.41,394c.8.33,1.91.44,2.37,1,3.34,4.4,6.57,8.89,9.78,13.39.82,1.15,1.77,2.41-.09,4-4-5.91-8.07-11.77-12.09-17.64Z"/><path class="cls-1" d="M632.06,424.17l3-7c.75-1.71,1.43-3.47,2.29-5.13.3-.57,1.07-.91,1.62-1.36.24.76.81,1.58.66,2.26a26.71,26.71,0,0,1-1.44,3.44c-1,2.74-1.94,5.54-3,8.26a8.3,8.3,0,0,1-1.64,2Z"/><path class="cls-1" d="M664.65,460.47l-.57-3.58-4.93,1.8c2.07-3.87,5.73-3.69,10.76.61Z"/><path class="cls-1" d="M772.08,413.92c-3-3.75-6.41-6.23-8.71-10.45C766.88,404.63,772.11,410.72,772.08,413.92Z"/><path class="cls-1" d="M784.59,413.1c.59.54,1.47,1,1.71,1.64a51.7,51.7,0,0,1,1.83,6.38c.1.4-.51,1-.79,1.45-.41-.29-1.07-.49-1.19-.87-.86-2.67-1.61-5.37-2.4-8.06Z"/><path class="cls-1" d="M688.56,467.8c1.26-5.19,4-7.4,8.14-6.51Z"/><path class="cls-1" d="M729.61,474.23c.71,1.62,1.42,3.25,2.12,4.87l1.29-.79-2,3.15-3.12-2.2.74-4.13Z"/><path class="cls-1" d="M736.58,468.53,733.9,471c-1.72-.76-3.92-1-3.77-3.86,0-.6-1.1-1.26-1.51-2.4.83.36,2.23.55,2.41,1.12.69,2.2,1.81,2.9,4,2C735.28,467.79,735.78,468.2,736.58,468.53Z"/><path class="cls-1" d="M655.22,401.46c-.85-3.16,1.67-6.61,5.74-8.15Z"/><path class="cls-1" d="M696.78,464.27c2-1.57,3.59-4.43,7-2.66C702.52,465.21,699.27,463.83,696.78,464.27Z"/><path class="cls-1" d="M741.91,389.14l7.5,3.85C745.83,393.7,742.92,392.19,741.91,389.14Z"/><path class="cls-1" d="M762.57,388.33,756.69,384C760.23,383.73,762.47,385.31,762.57,388.33Z"/><path class="cls-1" d="M740.12,467.69c-1.13,5.46-1.13,5.46-3.21,5.74l2.37-6.19Z"/><path class="cls-1" d="M769.23,393.34l-4.45-4.07,1-1.11,4.5,4Z"/><path class="cls-1" d="M702.35,477.13c-.09.95-.19,1.92-.22,2.21l-4.58-2.85C698.18,475.55,698.18,475.55,702.35,477.13Z"/><path class="cls-1" d="M739.05,386.92a23.85,23.85,0,0,1,1.2,2.87c0,.12-1.17.92-1.55.77a15,15,0,0,1-2.68-1.74l1.79-1.1Z"/><path class="cls-1" d="M643.29,461.09l-6.41-1.34.23-1.08,6.31,1.34Z"/><path class="cls-1" d="M709.67,473.1c2.93,1.8,3.14,3.26.69,4.94C710.13,476.41,709.93,474.93,709.67,473.1Z"/><path class="cls-1" d="M751.19,395.3a10,10,0,0,1,.88-.64c1.09.75,2.17,1.51,3.23,2.31,0,0-.33.52-.51.8Z"/><path class="cls-1" d="M741.71,448.7l4,.85-.28,1.38-4.06-.84Z"/><path class="cls-1" d="M721,466.06l3.6,3.82-.93.88-3.48-3.9Z"/><path class="cls-1" d="M772.66,466.7l-.27.33c0-.17.07-.34.11-.52Z"/><path class="cls-1" d="M767.53,542.84c-3.07,1.69-5.07,4.86-8.77,4.57,0-.34-.06-.63,0-.66,2.35-1.08,4.39-2.22,5.9-4.72.7-1.17,3.91-1.1,6-1.11a35.94,35.94,0,0,1,6.12,1l.77,2.86c-1.17.62-2.17,1.12-3.16,1.67-1.42.78-2.87,2.29-4.23,2.21-1.94-.11-2.15-2.23-2.18-4A11.17,11.17,0,0,0,767.53,542.84Z"/><path class="cls-1" d="M757.61,554.7c0,3,2.78,2.18,4.65,3.68-1.09.65-1.94,1.52-2.83,1.57-.68,0-1.48-.9-2.1-1.53a4.76,4.76,0,0,1-.92-1.63c-.74-1.86-1.77-2.47-3.69-1.34-.66.39-1.74.07-2.63.07l-.16-.77c.5-.43.94-1.12,1.52-1.25,2.12-.48,4.41-.45,6.39-1.22,1.83-.72,3.31-2.29,5-3.37a14.62,14.62,0,0,1,2.55-1,8.77,8.77,0,0,1-1,2.69,14.83,14.83,0,0,1-3.39,3A13.8,13.8,0,0,1,757.61,554.7Z"/><path class="cls-1" d="M771.24,550.86l.5,1.84-7.61,3.44c-1.43-1.37-.12-1.95,1-2.49C767,552.74,768.94,551.91,771.24,550.86Z"/><path class="cls-1" d="M748.53,557.55l-3.67,1.5-.68-1.88,3.68-1.3Z"/><path class="cls-1" d="M671.36,491.3a4.94,4.94,0,0,1,5.29-.72,8.9,8.9,0,0,0,3.85.87c3.18-.18,5.43,1.36,7.66,3.44-1.92,2-3.94,1.42-6,.62Z"/><path class="cls-1" d="M684.22,482.5c1.91,1.78,4.2,2.95,2.43,6.29l4.94-1.2-2.86,5.12-5.4-4.79Z"/><path class="cls-1" d="M678.18,480c3.37.2,3.71,1,1.77,4Z"/><path class="cls-1" d="M826.29,524.4a14.32,14.32,0,0,1-3.53-1.23c-.65-.45-.86-1.54-1.27-2.34a7.88,7.88,0,0,1,2.79-.76,5.93,5.93,0,0,1,2.56,1.39c.5.39,1.2,1.26,1.06,1.57C827.63,523.62,826.83,524,826.29,524.4Z"/><path class="cls-1" d="M597,469c-.88.53-1.74,1.43-2.66,1.51-2.49.21-5,.07-7.51.07l-.08-1.05,9.87-.95Z"/><path class="cls-1" d="M596.6,468.54l.64-.1c-.09.17-.17.35-.26.52Z"/><path class="cls-1" d="M642,470.8l8,3.63-.46.95c-2.56-1.43-6.21-.67-8-3.7Z"/><path class="cls-1" d="M711.67,511.53c-1.53,2.78-3.5,3-5.45,3a1.68,1.68,0,0,1-1.27-1,1.66,1.66,0,0,1,.87-1.38C707.56,511.86,709.34,511.76,711.67,511.53Z"/><path class="cls-1" d="M697.47,516.12c0-.08-.14-.18-.11-.23.54-1.37,1.1-2.73,1.65-4.09.44.22,1.29.6,1.28.62-.59,1.4-1.25,2.77-1.9,4.15Z"/><path class="cls-1" d="M708.38,433.16c2,4.24-1.41,7.11-2.46,11.1C704.2,438.1,705.14,434.18,708.38,433.16Z"/><path class="cls-1" d="M725.52,443.81c-1-1.76-1.91-3.53.08-5.11a2.47,2.47,0,0,1,2.43.13C729,439.85,727.52,442.62,725.52,443.81Z"/><path class="cls-1" d="M702.42,438.64c.7,2,1,3.86-1.4,4.91a2,2,0,0,1-1.9-.55C698.41,441.78,700.37,439.24,702.42,438.64Z"/><path class="cls-1" d="M722.88,447.42a8.9,8.9,0,0,1,2.46,1.48,4.81,4.81,0,0,1,.93,2.61,1.61,1.61,0,0,1-.92,1.32A1.65,1.65,0,0,1,724,452C723.43,450.28,723.12,448.52,722.88,447.42Z"/><path class="cls-1" d="M714.79,450.25c.67-2.38,1.35-4.77,2-7.16l1.23.36-2,7.2Z"/><path class="cls-1" d="M758.6,452.17c.61,3.11-1.13,5.63-2.33,8.29l-.73-.17,2-8.26Z"/><path class="cls-1" d="M666.2,443.41c.53-1.94,1.07-3.87,1.6-5.81l1.08.32-1.71,5.8Z"/></g></g></svg>